<?xml version="1.0"?>
<svg xmlns="http://www.w3.org/2000/svg" xmlns:xlink="http://www.w3.org/1999/xlink" viewBox="0 0 390.000000 132.000000" width="195.000000mm" height="66.000000mm" version="1.1">
<a xlink:href="wx-0x7f97194c2380.svg">
<rect x="1.000000" y="1.000000" width="389.000000" height="131.000000" rx="0" ry="0" style="stroke:none;fill:#cccccc;"/>
<rect x="0.000000" y="0.000000" width="389.000000" height="131.000000" rx="0" ry="0" style="stroke:none;fill:#ffffff;"/>
</a>
<text x="10.000000" y="7.000000" font-family="Arial" font-size="7"></text>
<rect x="55.000000" y="55.000000" width="180.600000" height="24.000000" rx="0" ry="0" style="stroke:none;fill:#cccccc;"/>
<rect x="54.000000" y="54.000000" width="180.600000" height="24.000000" rx="0" ry="0" style="stroke:none;fill:#477881;"/>
<text x="144.300000" y="68.000000" font-family="Arial" font-size="7" text-anchor="middle" fill="#FFFFFF">vslider(Freq 2, 49.0f, 1.0f, 100.0f, 1.0f)</text>
<circle cx="56.000000" cy="56.000000" r="1"/>
<line x1="45.000000" y1="45.000000" x2="45.000000" y2="87.000000"  style="stroke: black; stroke-linecap:round; stroke-width:0.25; stroke-dasharray:3,3;"/>
<line x1="45.000000" y1="87.000000" x2="243.600000" y2="87.000000"  style="stroke: black; stroke-linecap:round; stroke-width:0.25; stroke-dasharray:3,3;"/>
<line x1="243.600000" y1="87.000000" x2="243.600000" y2="45.000000"  style="stroke: black; stroke-linecap:round; stroke-width:0.25; stroke-dasharray:3,3;"/>
<line x1="45.000000" y1="45.000000" x2="50.000000" y2="45.000000"  style="stroke: black; stroke-linecap:round; stroke-width:0.25; stroke-dasharray:3,3;"/>
<line x1="101.600000" y1="45.000000" x2="243.600000" y2="45.000000"  style="stroke: black; stroke-linecap:round; stroke-width:0.25; stroke-dasharray:3,3;"/>
<text x="50.000000" y="47.000000" font-family="Arial" font-size="7">vgroup(Band 2)</text>
<line x1="35.000000" y1="35.000000" x2="35.000000" y2="97.000000"  style="stroke: black; stroke-linecap:round; stroke-width:0.25; stroke-dasharray:3,3;"/>
<line x1="35.000000" y1="97.000000" x2="253.600000" y2="97.000000"  style="stroke: black; stroke-linecap:round; stroke-width:0.25; stroke-dasharray:3,3;"/>
<line x1="253.600000" y1="97.000000" x2="253.600000" y2="35.000000"  style="stroke: black; stroke-linecap:round; stroke-width:0.25; stroke-dasharray:3,3;"/>
<line x1="35.000000" y1="35.000000" x2="40.000000" y2="35.000000"  style="stroke: black; stroke-linecap:round; stroke-width:0.25; stroke-dasharray:3,3;"/>
<line x1="78.700000" y1="35.000000" x2="253.600000" y2="35.000000"  style="stroke: black; stroke-linecap:round; stroke-width:0.25; stroke-dasharray:3,3;"/>
<text x="40.000000" y="37.000000" font-family="Arial" font-size="7">hgroup(EQ)</text>
<line x1="25.000000" y1="25.000000" x2="25.000000" y2="107.000000"  style="stroke: black; stroke-linecap:round; stroke-width:0.25; stroke-dasharray:3,3;"/>
<line x1="25.000000" y1="107.000000" x2="263.600000" y2="107.000000"  style="stroke: black; stroke-linecap:round; stroke-width:0.25; stroke-dasharray:3,3;"/>
<line x1="263.600000" y1="107.000000" x2="263.600000" y2="25.000000"  style="stroke: black; stroke-linecap:round; stroke-width:0.25; stroke-dasharray:3,3;"/>
<line x1="25.000000" y1="25.000000" x2="30.000000" y2="25.000000"  style="stroke: black; stroke-linecap:round; stroke-width:0.25; stroke-dasharray:3,3;"/>
<line x1="129.975000" y1="25.000000" x2="263.600000" y2="25.000000"  style="stroke: black; stroke-linecap:round; stroke-width:0.25; stroke-dasharray:3,3;"/>
<text x="30.000000" y="27.000000" font-family="Arial" font-size="7">pq2_group(vsl...00.0f, 1.0f))</text>
<a xlink:href="smoo-0x7f9717cea970.svg">
<rect x="273.600000" y="55.000000" width="25.800000" height="24.000000" rx="0" ry="0" style="stroke:none;fill:#cccccc;"/>
<rect x="272.600000" y="54.000000" width="25.800000" height="24.000000" rx="0" ry="0" style="stroke:none;fill:#003366;"/>
</a>
<a xlink:href="smoo-0x7f9717cea970.svg">
<text x="285.500000" y="68.000000" font-family="Arial" font-size="7" text-anchor="middle" fill="#FFFFFF">smoo</text>
</a>
<circle cx="274.600000" cy="56.000000" r="1"/>
<line x1="269.600000" y1="65.000000" x2="272.600000" y2="66.000000"  transform="rotate(0.000000,272.600000,66.000000)" style="stroke: black; stroke-width:0.25;"/>
<line x1="269.600000" y1="67.000000" x2="272.600000" y2="66.000000"  transform="rotate(0.000000,272.600000,66.000000)" style="stroke: black; stroke-width:0.25;"/>
<a xlink:href="pianokey2hz-0x7f9719418060.svg">
<rect x="307.400000" y="55.000000" width="51.600000" height="24.000000" rx="0" ry="0" style="stroke:none;fill:#cccccc;"/>
<rect x="306.400000" y="54.000000" width="51.600000" height="24.000000" rx="0" ry="0" style="stroke:none;fill:#003366;"/>
</a>
<a xlink:href="pianokey2hz-0x7f9719418060.svg">
<text x="332.200000" y="68.000000" font-family="Arial" font-size="7" text-anchor="middle" fill="#FFFFFF">pianokey2hz</text>
</a>
<circle cx="308.400000" cy="56.000000" r="1"/>
<line x1="303.400000" y1="65.000000" x2="306.400000" y2="66.000000"  transform="rotate(0.000000,306.400000,66.000000)" style="stroke: black; stroke-width:0.25;"/>
<line x1="303.400000" y1="67.000000" x2="306.400000" y2="66.000000"  transform="rotate(0.000000,306.400000,66.000000)" style="stroke: black; stroke-width:0.25;"/>
<line x1="15.000000" y1="15.000000" x2="15.000000" y2="117.000000"  style="stroke: black; stroke-linecap:round; stroke-width:0.25; stroke-dasharray:3,3;"/>
<line x1="15.000000" y1="117.000000" x2="375.000000" y2="117.000000"  style="stroke: black; stroke-linecap:round; stroke-width:0.25; stroke-dasharray:3,3;"/>
<line x1="375.000000" y1="117.000000" x2="375.000000" y2="15.000000"  style="stroke: black; stroke-linecap:round; stroke-width:0.25; stroke-dasharray:3,3;"/>
<line x1="15.000000" y1="15.000000" x2="20.000000" y2="15.000000"  style="stroke: black; stroke-linecap:round; stroke-width:0.25; stroke-dasharray:3,3;"/>
<line x1="36.125000" y1="15.000000" x2="375.000000" y2="15.000000"  style="stroke: black; stroke-linecap:round; stroke-width:0.25; stroke-dasharray:3,3;"/>
<text x="20.000000" y="17.000000" font-family="Arial" font-size="7">FP2</text>
<line x1="377.000000" y1="65.000000" x2="380.000000" y2="66.000000"  transform="rotate(0.000000,380.000000,66.000000)" style="stroke: black; stroke-width:0.25;"/>
<line x1="377.000000" y1="67.000000" x2="380.000000" y2="66.000000"  transform="rotate(0.000000,380.000000,66.000000)" style="stroke: black; stroke-width:0.25;"/>
<line x1="234.600000" y1="66.000000" x2="238.600000" y2="66.000000"  style="stroke:black; stroke-linecap:round; stroke-width:0.25;"/>
<line x1="238.600000" y1="66.000000" x2="248.600000" y2="66.000000"  style="stroke:black; stroke-linecap:round; stroke-width:0.25;"/>
<line x1="248.600000" y1="66.000000" x2="258.600000" y2="66.000000"  style="stroke:black; stroke-linecap:round; stroke-width:0.25;"/>
<line x1="258.600000" y1="66.000000" x2="268.600000" y2="66.000000"  style="stroke:black; stroke-linecap:round; stroke-width:0.25;"/>
<line x1="268.600000" y1="66.000000" x2="268.600000" y2="66.000000"  style="stroke:black; stroke-linecap:round; stroke-width:0.25;"/>
<line x1="268.600000" y1="66.000000" x2="272.600000" y2="66.000000"  style="stroke:black; stroke-linecap:round; stroke-width:0.25;"/>
<line x1="298.400000" y1="66.000000" x2="302.400000" y2="66.000000"  style="stroke:black; stroke-linecap:round; stroke-width:0.25;"/>
<line x1="302.400000" y1="66.000000" x2="302.400000" y2="66.000000"  style="stroke:black; stroke-linecap:round; stroke-width:0.25;"/>
<line x1="302.400000" y1="66.000000" x2="306.400000" y2="66.000000"  style="stroke:black; stroke-linecap:round; stroke-width:0.25;"/>
<line x1="358.000000" y1="66.000000" x2="362.000000" y2="66.000000"  style="stroke:black; stroke-linecap:round; stroke-width:0.25;"/>
<line x1="362.000000" y1="66.000000" x2="362.000000" y2="66.000000"  style="stroke:black; stroke-linecap:round; stroke-width:0.25;"/>
<line x1="362.000000" y1="66.000000" x2="366.000000" y2="66.000000"  style="stroke:black; stroke-linecap:round; stroke-width:0.25;"/>
<line x1="366.000000" y1="66.000000" x2="370.000000" y2="66.000000"  style="stroke:black; stroke-linecap:round; stroke-width:0.25;"/>
<line x1="370.000000" y1="66.000000" x2="380.000000" y2="66.000000"  style="stroke:black; stroke-linecap:round; stroke-width:0.25;"/>
</svg>
