<?xml version="1.0"?>
<svg xmlns="http://www.w3.org/2000/svg" xmlns:xlink="http://www.w3.org/1999/xlink" viewBox="0 0 314.400000 92.000000" width="157.200000mm" height="46.000000mm" version="1.1">
<a xlink:href="process.svg">
<rect x="1.000000" y="1.000000" width="313.400000" height="91.000000" rx="0" ry="0" style="stroke:none;fill:#cccccc;"/>
<rect x="0.000000" y="0.000000" width="313.400000" height="91.000000" rx="0" ry="0" style="stroke:none;fill:#ffffff;"/>
</a>
<text x="10.000000" y="7.000000" font-family="Arial" font-size="7"></text>
<rect x="35.000000" y="35.000000" width="206.400000" height="24.000000" rx="0" ry="0" style="stroke:none;fill:#cccccc;"/>
<rect x="34.000000" y="34.000000" width="206.400000" height="24.000000" rx="0" ry="0" style="stroke:none;fill:#477881;"/>
<text x="137.200000" y="48.000000" font-family="Arial" font-size="7" text-anchor="middle" fill="#FFFFFF">checkbox(I&apos;m Sitting... Uncheck me at the end)</text>
<circle cx="36.000000" cy="36.000000" r="1"/>
<line x1="25.000000" y1="25.000000" x2="25.000000" y2="67.000000"  style="stroke: black; stroke-linecap:round; stroke-width:0.25; stroke-dasharray:3,3;"/>
<line x1="25.000000" y1="67.000000" x2="249.400000" y2="67.000000"  style="stroke: black; stroke-linecap:round; stroke-width:0.25; stroke-dasharray:3,3;"/>
<line x1="249.400000" y1="67.000000" x2="249.400000" y2="25.000000"  style="stroke: black; stroke-linecap:round; stroke-width:0.25; stroke-dasharray:3,3;"/>
<line x1="25.000000" y1="25.000000" x2="30.000000" y2="25.000000"  style="stroke: black; stroke-linecap:round; stroke-width:0.25; stroke-dasharray:3,3;"/>
<line x1="39.675000" y1="25.000000" x2="249.400000" y2="25.000000"  style="stroke: black; stroke-linecap:round; stroke-width:0.25; stroke-dasharray:3,3;"/>
<text x="30.000000" y="27.000000" font-family="Arial" font-size="7">L</text>
<rect x="259.400000" y="35.000000" width="24.000000" height="24.000000" rx="0" ry="0" style="stroke:none;fill:#cccccc;"/>
<rect x="258.400000" y="34.000000" width="24.000000" height="24.000000" rx="0" ry="0" style="stroke:none;fill:#4B71A1;"/>
<text x="270.400000" y="48.000000" font-family="Arial" font-size="7" text-anchor="middle" fill="#FFFFFF">int</text>
<circle cx="260.400000" cy="36.000000" r="1"/>
<line x1="255.400000" y1="45.000000" x2="258.400000" y2="46.000000"  transform="rotate(0.000000,258.400000,46.000000)" style="stroke: black; stroke-width:0.25;"/>
<line x1="255.400000" y1="47.000000" x2="258.400000" y2="46.000000"  transform="rotate(0.000000,258.400000,46.000000)" style="stroke: black; stroke-width:0.25;"/>
<line x1="15.000000" y1="15.000000" x2="15.000000" y2="77.000000"  style="stroke: black; stroke-linecap:round; stroke-width:0.25; stroke-dasharray:3,3;"/>
<line x1="15.000000" y1="77.000000" x2="299.400000" y2="77.000000"  style="stroke: black; stroke-linecap:round; stroke-width:0.25; stroke-dasharray:3,3;"/>
<line x1="299.400000" y1="77.000000" x2="299.400000" y2="15.000000"  style="stroke: black; stroke-linecap:round; stroke-width:0.25; stroke-dasharray:3,3;"/>
<line x1="15.000000" y1="15.000000" x2="20.000000" y2="15.000000"  style="stroke: black; stroke-linecap:round; stroke-width:0.25; stroke-dasharray:3,3;"/>
<line x1="32.900000" y1="15.000000" x2="299.400000" y2="15.000000"  style="stroke: black; stroke-linecap:round; stroke-width:0.25; stroke-dasharray:3,3;"/>
<text x="20.000000" y="17.000000" font-family="Arial" font-size="7">IL</text>
<line x1="301.400000" y1="45.000000" x2="304.400000" y2="46.000000"  transform="rotate(0.000000,304.400000,46.000000)" style="stroke: black; stroke-width:0.25;"/>
<line x1="301.400000" y1="47.000000" x2="304.400000" y2="46.000000"  transform="rotate(0.000000,304.400000,46.000000)" style="stroke: black; stroke-width:0.25;"/>
<line x1="240.400000" y1="46.000000" x2="244.400000" y2="46.000000"  style="stroke:black; stroke-linecap:round; stroke-width:0.25;"/>
<line x1="244.400000" y1="46.000000" x2="254.400000" y2="46.000000"  style="stroke:black; stroke-linecap:round; stroke-width:0.25;"/>
<line x1="254.400000" y1="46.000000" x2="254.400000" y2="46.000000"  style="stroke:black; stroke-linecap:round; stroke-width:0.25;"/>
<line x1="254.400000" y1="46.000000" x2="258.400000" y2="46.000000"  style="stroke:black; stroke-linecap:round; stroke-width:0.25;"/>
<line x1="282.400000" y1="46.000000" x2="286.400000" y2="46.000000"  style="stroke:black; stroke-linecap:round; stroke-width:0.25;"/>
<line x1="286.400000" y1="46.000000" x2="286.400000" y2="46.000000"  style="stroke:black; stroke-linecap:round; stroke-width:0.25;"/>
<line x1="286.400000" y1="46.000000" x2="290.400000" y2="46.000000"  style="stroke:black; stroke-linecap:round; stroke-width:0.25;"/>
<line x1="290.400000" y1="46.000000" x2="294.400000" y2="46.000000"  style="stroke:black; stroke-linecap:round; stroke-width:0.25;"/>
<line x1="294.400000" y1="46.000000" x2="304.400000" y2="46.000000"  style="stroke:black; stroke-linecap:round; stroke-width:0.25;"/>
</svg>
