<?xml version="1.0"?>
<svg xmlns="http://www.w3.org/2000/svg" xmlns:xlink="http://www.w3.org/1999/xlink" viewBox="0 0 562.900000 100.000000" width="281.450000mm" height="50.000000mm" version="1.1">
<rect x="1.000000" y="1.000000" width="561.900000" height="99.000000" rx="0" ry="0" style="stroke:none;fill:#cccccc;"/>
<rect x="0.000000" y="0.000000" width="561.900000" height="99.000000" rx="0" ry="0" style="stroke:none;fill:#ffffff;"/>
<text x="10.000000" y="7.000000" font-family="Arial" font-size="7"></text>
<a xlink:href="hmeter-0x7f971960e5f0.svg">
<rect x="43.000000" y="39.000000" width="25.800000" height="24.000000" rx="0" ry="0" style="stroke:none;fill:#cccccc;"/>
<rect x="42.000000" y="38.000000" width="25.800000" height="24.000000" rx="0" ry="0" style="stroke:none;fill:#003366;"/>
</a>
<a xlink:href="hmeter-0x7f971960e5f0.svg">
<text x="54.900000" y="52.000000" font-family="Arial" font-size="7" text-anchor="middle" fill="#FFFFFF">hmeter</text>
</a>
<circle cx="44.000000" cy="40.000000" r="1"/>
<line x1="39.000000" y1="49.000000" x2="42.000000" y2="50.000000"  transform="rotate(0.000000,42.000000,50.000000)" style="stroke: black; stroke-width:0.25;"/>
<line x1="39.000000" y1="51.000000" x2="42.000000" y2="50.000000"  transform="rotate(0.000000,42.000000,50.000000)" style="stroke: black; stroke-width:0.25;"/>
<line x1="33.000000" y1="29.000000" x2="33.000000" y2="71.000000"  style="stroke: black; stroke-linecap:round; stroke-width:0.25; stroke-dasharray:3,3;"/>
<line x1="33.000000" y1="71.000000" x2="76.800000" y2="71.000000"  style="stroke: black; stroke-linecap:round; stroke-width:0.25; stroke-dasharray:3,3;"/>
<line x1="76.800000" y1="71.000000" x2="76.800000" y2="29.000000"  style="stroke: black; stroke-linecap:round; stroke-width:0.25; stroke-dasharray:3,3;"/>
<line x1="33.000000" y1="29.000000" x2="38.000000" y2="29.000000"  style="stroke: black; stroke-linecap:round; stroke-width:0.25; stroke-dasharray:3,3;"/>
<line x1="76.800000" y1="29.000000" x2="76.800000" y2="29.000000"  style="stroke: black; stroke-linecap:round; stroke-width:0.25; stroke-dasharray:3,3;"/>
<text x="38.000000" y="31.000000" font-family="Arial" font-size="7">vgroup(Input)</text>
<a xlink:href="IL-0x7f9717d38fc0.svg">
<rect x="104.800000" y="43.000000" width="24.000000" height="24.000000" rx="0" ry="0" style="stroke:none;fill:#cccccc;"/>
<rect x="103.800000" y="42.000000" width="24.000000" height="24.000000" rx="0" ry="0" style="stroke:none;fill:#003366;"/>
</a>
<a xlink:href="IL-0x7f9717d38fc0.svg">
<text x="115.800000" y="56.000000" font-family="Arial" font-size="7" text-anchor="middle" fill="#FFFFFF">IL</text>
</a>
<circle cx="105.800000" cy="44.000000" r="1"/>
<rect x="144.800000" y="39.000000" width="24.000000" height="24.000000" rx="0" ry="0" style="stroke:none;fill:#cccccc;"/>
<rect x="143.800000" y="38.000000" width="24.000000" height="24.000000" rx="0" ry="0" style="stroke:none;fill:#4B71A1;"/>
<text x="155.800000" y="52.000000" font-family="Arial" font-size="7" text-anchor="middle" fill="#FFFFFF">*</text>
<circle cx="145.800000" cy="40.000000" r="1"/>
<line x1="140.800000" y1="45.000000" x2="143.800000" y2="46.000000"  transform="rotate(0.000000,143.800000,46.000000)" style="stroke: black; stroke-width:0.25;"/>
<line x1="140.800000" y1="47.000000" x2="143.800000" y2="46.000000"  transform="rotate(0.000000,143.800000,46.000000)" style="stroke: black; stroke-width:0.25;"/>
<line x1="140.800000" y1="53.000000" x2="143.800000" y2="54.000000"  transform="rotate(0.000000,143.800000,54.000000)" style="stroke: black; stroke-width:0.25;"/>
<line x1="140.800000" y1="55.000000" x2="143.800000" y2="54.000000"  transform="rotate(0.000000,143.800000,54.000000)" style="stroke: black; stroke-width:0.25;"/>
<a xlink:href="delay-0x7f9719611980.svg">
<rect x="176.800000" y="39.000000" width="129.000000" height="24.000000" rx="0" ry="0" style="stroke:none;fill:#cccccc;"/>
<rect x="175.800000" y="38.000000" width="129.000000" height="24.000000" rx="0" ry="0" style="stroke:none;fill:#003366;"/>
</a>
<a xlink:href="delay-0x7f9719611980.svg">
<text x="240.300000" y="52.000000" font-family="Arial" font-size="7" text-anchor="middle" fill="#FFFFFF">delay((192000...: *)~_,1 : -)</text>
</a>
<circle cx="177.800000" cy="40.000000" r="1"/>
<line x1="172.800000" y1="49.000000" x2="175.800000" y2="50.000000"  transform="rotate(0.000000,175.800000,50.000000)" style="stroke: black; stroke-width:0.25;"/>
<line x1="172.800000" y1="51.000000" x2="175.800000" y2="50.000000"  transform="rotate(0.000000,175.800000,50.000000)" style="stroke: black; stroke-width:0.25;"/>
<line x1="94.800000" y1="25.000000" x2="94.800000" y2="75.000000"  style="stroke: black; stroke-linecap:round; stroke-width:0.25; stroke-dasharray:3,3;"/>
<line x1="94.800000" y1="75.000000" x2="313.800000" y2="75.000000"  style="stroke: black; stroke-linecap:round; stroke-width:0.25; stroke-dasharray:3,3;"/>
<line x1="313.800000" y1="75.000000" x2="313.800000" y2="25.000000"  style="stroke: black; stroke-linecap:round; stroke-width:0.25; stroke-dasharray:3,3;"/>
<line x1="94.800000" y1="25.000000" x2="99.800000" y2="25.000000"  style="stroke: black; stroke-linecap:round; stroke-width:0.25; stroke-dasharray:3,3;"/>
<line x1="270.725000" y1="25.000000" x2="313.800000" y2="25.000000"  style="stroke: black; stroke-linecap:round; stroke-width:0.25; stroke-dasharray:3,3;"/>
<text x="99.800000" y="27.000000" font-family="Arial" font-size="7">vgroup(-------&gt; Check both boxes to start &lt;-------)</text>
<a xlink:href="preeq-0x7f9719612470.svg">
<rect x="333.800000" y="39.000000" width="25.800000" height="24.000000" rx="0" ry="0" style="stroke:none;fill:#cccccc;"/>
<rect x="332.800000" y="38.000000" width="25.800000" height="24.000000" rx="0" ry="0" style="stroke:none;fill:#003366;"/>
</a>
<a xlink:href="preeq-0x7f9719612470.svg">
<text x="345.700000" y="52.000000" font-family="Arial" font-size="7" text-anchor="middle" fill="#FFFFFF">preeq</text>
</a>
<circle cx="334.800000" cy="40.000000" r="1"/>
<line x1="329.800000" y1="49.000000" x2="332.800000" y2="50.000000"  transform="rotate(0.000000,332.800000,50.000000)" style="stroke: black; stroke-width:0.25;"/>
<line x1="329.800000" y1="51.000000" x2="332.800000" y2="50.000000"  transform="rotate(0.000000,332.800000,50.000000)" style="stroke: black; stroke-width:0.25;"/>
<a xlink:href="studioeq-0x7f971961b380.svg">
<rect x="367.600000" y="39.000000" width="38.700000" height="24.000000" rx="0" ry="0" style="stroke:none;fill:#cccccc;"/>
<rect x="366.600000" y="38.000000" width="38.700000" height="24.000000" rx="0" ry="0" style="stroke:none;fill:#003366;"/>
</a>
<a xlink:href="studioeq-0x7f971961b380.svg">
<text x="385.950000" y="52.000000" font-family="Arial" font-size="7" text-anchor="middle" fill="#FFFFFF">studioeq</text>
</a>
<circle cx="368.600000" cy="40.000000" r="1"/>
<line x1="363.600000" y1="49.000000" x2="366.600000" y2="50.000000"  transform="rotate(0.000000,366.600000,50.000000)" style="stroke: black; stroke-width:0.25;"/>
<line x1="363.600000" y1="51.000000" x2="366.600000" y2="50.000000"  transform="rotate(0.000000,366.600000,50.000000)" style="stroke: black; stroke-width:0.25;"/>
<a xlink:href="gain-0x7f97196066b0.svg">
<rect x="422.300000" y="43.000000" width="25.800000" height="24.000000" rx="0" ry="0" style="stroke:none;fill:#cccccc;"/>
<rect x="421.300000" y="42.000000" width="25.800000" height="24.000000" rx="0" ry="0" style="stroke:none;fill:#003366;"/>
</a>
<a xlink:href="gain-0x7f97196066b0.svg">
<text x="434.200000" y="56.000000" font-family="Arial" font-size="7" text-anchor="middle" fill="#FFFFFF">gain</text>
</a>
<circle cx="423.300000" cy="44.000000" r="1"/>
<rect x="464.100000" y="39.000000" width="24.000000" height="24.000000" rx="0" ry="0" style="stroke:none;fill:#cccccc;"/>
<rect x="463.100000" y="38.000000" width="24.000000" height="24.000000" rx="0" ry="0" style="stroke:none;fill:#4B71A1;"/>
<text x="475.100000" y="52.000000" font-family="Arial" font-size="7" text-anchor="middle" fill="#FFFFFF">*</text>
<circle cx="465.100000" cy="40.000000" r="1"/>
<line x1="460.100000" y1="45.000000" x2="463.100000" y2="46.000000"  transform="rotate(0.000000,463.100000,46.000000)" style="stroke: black; stroke-width:0.25;"/>
<line x1="460.100000" y1="47.000000" x2="463.100000" y2="46.000000"  transform="rotate(0.000000,463.100000,46.000000)" style="stroke: black; stroke-width:0.25;"/>
<line x1="460.100000" y1="53.000000" x2="463.100000" y2="54.000000"  transform="rotate(0.000000,463.100000,54.000000)" style="stroke: black; stroke-width:0.25;"/>
<line x1="460.100000" y1="55.000000" x2="463.100000" y2="54.000000"  transform="rotate(0.000000,463.100000,54.000000)" style="stroke: black; stroke-width:0.25;"/>
<a xlink:href="hmeter-0x7f971960e5f0.svg">
<rect x="496.100000" y="39.000000" width="25.800000" height="24.000000" rx="0" ry="0" style="stroke:none;fill:#cccccc;"/>
<rect x="495.100000" y="38.000000" width="25.800000" height="24.000000" rx="0" ry="0" style="stroke:none;fill:#003366;"/>
</a>
<a xlink:href="hmeter-0x7f971960e5f0.svg">
<text x="508.000000" y="52.000000" font-family="Arial" font-size="7" text-anchor="middle" fill="#FFFFFF">hmeter</text>
</a>
<circle cx="497.100000" cy="40.000000" r="1"/>
<line x1="492.100000" y1="49.000000" x2="495.100000" y2="50.000000"  transform="rotate(0.000000,495.100000,50.000000)" style="stroke: black; stroke-width:0.25;"/>
<line x1="492.100000" y1="51.000000" x2="495.100000" y2="50.000000"  transform="rotate(0.000000,495.100000,50.000000)" style="stroke: black; stroke-width:0.25;"/>
<line x1="323.800000" y1="25.000000" x2="323.800000" y2="75.000000"  style="stroke: black; stroke-linecap:round; stroke-width:0.25; stroke-dasharray:3,3;"/>
<line x1="323.800000" y1="75.000000" x2="529.900000" y2="75.000000"  style="stroke: black; stroke-linecap:round; stroke-width:0.25; stroke-dasharray:3,3;"/>
<line x1="529.900000" y1="75.000000" x2="529.900000" y2="25.000000"  style="stroke: black; stroke-linecap:round; stroke-width:0.25; stroke-dasharray:3,3;"/>
<line x1="323.800000" y1="25.000000" x2="328.800000" y2="25.000000"  style="stroke: black; stroke-linecap:round; stroke-width:0.25; stroke-dasharray:3,3;"/>
<line x1="361.050000" y1="25.000000" x2="529.900000" y2="25.000000"  style="stroke: black; stroke-linecap:round; stroke-width:0.25; stroke-dasharray:3,3;"/>
<text x="328.800000" y="27.000000" font-family="Arial" font-size="7">vgroup()</text>
<line x1="15.000000" y1="15.000000" x2="15.000000" y2="85.000000"  style="stroke: black; stroke-linecap:round; stroke-width:0.25; stroke-dasharray:3,3;"/>
<line x1="15.000000" y1="85.000000" x2="547.900000" y2="85.000000"  style="stroke: black; stroke-linecap:round; stroke-width:0.25; stroke-dasharray:3,3;"/>
<line x1="547.900000" y1="85.000000" x2="547.900000" y2="15.000000"  style="stroke: black; stroke-linecap:round; stroke-width:0.25; stroke-dasharray:3,3;"/>
<line x1="15.000000" y1="15.000000" x2="20.000000" y2="15.000000"  style="stroke: black; stroke-linecap:round; stroke-width:0.25; stroke-dasharray:3,3;"/>
<line x1="49.025000" y1="15.000000" x2="547.900000" y2="15.000000"  style="stroke: black; stroke-linecap:round; stroke-width:0.25; stroke-dasharray:3,3;"/>
<text x="20.000000" y="17.000000" font-family="Arial" font-size="7">process</text>
<line x1="549.900000" y1="49.000000" x2="552.900000" y2="50.000000"  transform="rotate(0.000000,552.900000,50.000000)" style="stroke: black; stroke-width:0.25;"/>
<line x1="549.900000" y1="51.000000" x2="552.900000" y2="50.000000"  transform="rotate(0.000000,552.900000,50.000000)" style="stroke: black; stroke-width:0.25;"/>
<line x1="10.000000" y1="50.000000" x2="20.000000" y2="50.000000"  style="stroke:black; stroke-linecap:round; stroke-width:0.25;"/>
<line x1="20.000000" y1="50.000000" x2="24.000000" y2="50.000000"  style="stroke:black; stroke-linecap:round; stroke-width:0.25;"/>
<line x1="24.000000" y1="50.000000" x2="28.000000" y2="50.000000"  style="stroke:black; stroke-linecap:round; stroke-width:0.25;"/>
<line x1="28.000000" y1="50.000000" x2="28.000000" y2="50.000000"  style="stroke:black; stroke-linecap:round; stroke-width:0.25;"/>
<line x1="28.000000" y1="50.000000" x2="38.000000" y2="50.000000"  style="stroke:black; stroke-linecap:round; stroke-width:0.25;"/>
<line x1="38.000000" y1="50.000000" x2="42.000000" y2="50.000000"  style="stroke:black; stroke-linecap:round; stroke-width:0.25;"/>
<line x1="67.800000" y1="50.000000" x2="71.800000" y2="50.000000"  style="stroke:black; stroke-linecap:round; stroke-width:0.25;"/>
<line x1="71.800000" y1="50.000000" x2="81.800000" y2="50.000000"  style="stroke:black; stroke-linecap:round; stroke-width:0.25;"/>
<line x1="81.800000" y1="34.000000" x2="89.800000" y2="34.000000"  style="stroke:black; stroke-linecap:round; stroke-width:0.25;"/>
<line x1="81.800000" y1="50.000000" x2="81.800000" y2="34.000000"  style="stroke:black; stroke-linecap:round; stroke-width:0.25;"/>
<line x1="81.800000" y1="50.000000" x2="81.800000" y2="50.000000"  style="stroke:black; stroke-linecap:round; stroke-width:0.25;"/>
<line x1="89.800000" y1="34.000000" x2="99.800000" y2="34.000000"  style="stroke:black; stroke-linecap:round; stroke-width:0.25;"/>
<line x1="99.800000" y1="34.000000" x2="115.800000" y2="34.000000"  style="stroke:black; stroke-linecap:round; stroke-width:0.25;"/>
<line x1="115.800000" y1="34.000000" x2="131.800000" y2="34.000000"  style="stroke:black; stroke-linecap:round; stroke-width:0.25;"/>
<line x1="127.800000" y1="54.000000" x2="131.800000" y2="54.000000"  style="stroke:black; stroke-linecap:round; stroke-width:0.25;"/>
<line x1="131.800000" y1="34.000000" x2="139.800000" y2="34.000000"  style="stroke:black; stroke-linecap:round; stroke-width:0.25;"/>
<line x1="131.800000" y1="54.000000" x2="139.800000" y2="54.000000"  style="stroke:black; stroke-linecap:round; stroke-width:0.25;"/>
<line x1="139.800000" y1="34.000000" x2="139.800000" y2="46.000000"  style="stroke:black; stroke-linecap:round; stroke-width:0.25;"/>
<line x1="139.800000" y1="46.000000" x2="139.800000" y2="46.000000"  style="stroke:black; stroke-linecap:round; stroke-width:0.25;"/>
<line x1="139.800000" y1="46.000000" x2="143.800000" y2="46.000000"  style="stroke:black; stroke-linecap:round; stroke-width:0.25;"/>
<line x1="139.800000" y1="54.000000" x2="143.800000" y2="54.000000"  style="stroke:black; stroke-linecap:round; stroke-width:0.25;"/>
<line x1="167.800000" y1="50.000000" x2="171.800000" y2="50.000000"  style="stroke:black; stroke-linecap:round; stroke-width:0.25;"/>
<line x1="171.800000" y1="50.000000" x2="171.800000" y2="50.000000"  style="stroke:black; stroke-linecap:round; stroke-width:0.25;"/>
<line x1="171.800000" y1="50.000000" x2="175.800000" y2="50.000000"  style="stroke:black; stroke-linecap:round; stroke-width:0.25;"/>
<line x1="304.800000" y1="50.000000" x2="308.800000" y2="50.000000"  style="stroke:black; stroke-linecap:round; stroke-width:0.25;"/>
<line x1="308.800000" y1="50.000000" x2="318.800000" y2="50.000000"  style="stroke:black; stroke-linecap:round; stroke-width:0.25;"/>
<line x1="318.800000" y1="50.000000" x2="318.800000" y2="50.000000"  style="stroke:black; stroke-linecap:round; stroke-width:0.25;"/>
<line x1="318.800000" y1="50.000000" x2="328.800000" y2="50.000000"  style="stroke:black; stroke-linecap:round; stroke-width:0.25;"/>
<line x1="328.800000" y1="50.000000" x2="332.800000" y2="50.000000"  style="stroke:black; stroke-linecap:round; stroke-width:0.25;"/>
<line x1="358.600000" y1="50.000000" x2="362.600000" y2="50.000000"  style="stroke:black; stroke-linecap:round; stroke-width:0.25;"/>
<line x1="362.600000" y1="50.000000" x2="362.600000" y2="50.000000"  style="stroke:black; stroke-linecap:round; stroke-width:0.25;"/>
<line x1="362.600000" y1="50.000000" x2="366.600000" y2="50.000000"  style="stroke:black; stroke-linecap:round; stroke-width:0.25;"/>
<line x1="405.300000" y1="50.000000" x2="409.300000" y2="50.000000"  style="stroke:black; stroke-linecap:round; stroke-width:0.25;"/>
<line x1="409.300000" y1="34.000000" x2="417.300000" y2="34.000000"  style="stroke:black; stroke-linecap:round; stroke-width:0.25;"/>
<line x1="409.300000" y1="50.000000" x2="409.300000" y2="34.000000"  style="stroke:black; stroke-linecap:round; stroke-width:0.25;"/>
<line x1="409.300000" y1="50.000000" x2="409.300000" y2="50.000000"  style="stroke:black; stroke-linecap:round; stroke-width:0.25;"/>
<line x1="417.300000" y1="34.000000" x2="434.200000" y2="34.000000"  style="stroke:black; stroke-linecap:round; stroke-width:0.25;"/>
<line x1="434.200000" y1="34.000000" x2="451.100000" y2="34.000000"  style="stroke:black; stroke-linecap:round; stroke-width:0.25;"/>
<line x1="447.100000" y1="54.000000" x2="451.100000" y2="54.000000"  style="stroke:black; stroke-linecap:round; stroke-width:0.25;"/>
<line x1="451.100000" y1="34.000000" x2="459.100000" y2="34.000000"  style="stroke:black; stroke-linecap:round; stroke-width:0.25;"/>
<line x1="451.100000" y1="54.000000" x2="459.100000" y2="54.000000"  style="stroke:black; stroke-linecap:round; stroke-width:0.25;"/>
<line x1="459.100000" y1="34.000000" x2="459.100000" y2="46.000000"  style="stroke:black; stroke-linecap:round; stroke-width:0.25;"/>
<line x1="459.100000" y1="46.000000" x2="459.100000" y2="46.000000"  style="stroke:black; stroke-linecap:round; stroke-width:0.25;"/>
<line x1="459.100000" y1="46.000000" x2="463.100000" y2="46.000000"  style="stroke:black; stroke-linecap:round; stroke-width:0.25;"/>
<line x1="459.100000" y1="54.000000" x2="463.100000" y2="54.000000"  style="stroke:black; stroke-linecap:round; stroke-width:0.25;"/>
<line x1="487.100000" y1="50.000000" x2="491.100000" y2="50.000000"  style="stroke:black; stroke-linecap:round; stroke-width:0.25;"/>
<line x1="491.100000" y1="50.000000" x2="491.100000" y2="50.000000"  style="stroke:black; stroke-linecap:round; stroke-width:0.25;"/>
<line x1="491.100000" y1="50.000000" x2="495.100000" y2="50.000000"  style="stroke:black; stroke-linecap:round; stroke-width:0.25;"/>
<line x1="520.900000" y1="50.000000" x2="524.900000" y2="50.000000"  style="stroke:black; stroke-linecap:round; stroke-width:0.25;"/>
<line x1="524.900000" y1="50.000000" x2="534.900000" y2="50.000000"  style="stroke:black; stroke-linecap:round; stroke-width:0.25;"/>
<line x1="534.900000" y1="50.000000" x2="534.900000" y2="50.000000"  style="stroke:black; stroke-linecap:round; stroke-width:0.25;"/>
<line x1="534.900000" y1="50.000000" x2="538.900000" y2="50.000000"  style="stroke:black; stroke-linecap:round; stroke-width:0.25;"/>
<line x1="538.900000" y1="50.000000" x2="542.900000" y2="50.000000"  style="stroke:black; stroke-linecap:round; stroke-width:0.25;"/>
<line x1="542.900000" y1="50.000000" x2="552.900000" y2="50.000000"  style="stroke:black; stroke-linecap:round; stroke-width:0.25;"/>
</svg>
