<?xml version="1.0"?>
<svg xmlns="http://www.w3.org/2000/svg" xmlns:xlink="http://www.w3.org/1999/xlink" viewBox="0 0 201.400000 212.000000" width="100.700000mm" height="106.000000mm" version="1.1">
<a xlink:href="ctrlgroup-0x7f892546b070.svg">
<rect x="1.000000" y="1.000000" width="200.400000" height="211.000000" rx="0" ry="0" style="stroke:none;fill:#cccccc;"/>
<rect x="0.000000" y="0.000000" width="200.400000" height="211.000000" rx="0" ry="0" style="stroke:none;fill:#ffffff;"/>
</a>
<text x="10.000000" y="7.000000" font-family="Arial" font-size="7"></text>
<a xlink:href="ff800-0x7f89254608a0.svg">
<rect x="43.000000" y="35.000000" width="51.600000" height="144.000000" rx="0" ry="0" style="stroke:none;fill:#cccccc;"/>
<rect x="42.000000" y="34.000000" width="51.600000" height="144.000000" rx="0" ry="0" style="stroke:none;fill:#003366;"/>
</a>
<a xlink:href="ff800-0x7f89254608a0.svg">
<text x="67.800000" y="108.000000" font-family="Arial" font-size="7" text-anchor="middle" fill="#FFFFFF">ff800_WXYZ</text>
</a>
<circle cx="44.000000" cy="36.000000" r="1"/>
<line x1="39.000000" y1="37.000000" x2="42.000000" y2="38.000000"  transform="rotate(0.000000,42.000000,38.000000)" style="stroke: black; stroke-width:0.25;"/>
<line x1="39.000000" y1="39.000000" x2="42.000000" y2="38.000000"  transform="rotate(0.000000,42.000000,38.000000)" style="stroke: black; stroke-width:0.25;"/>
<line x1="39.000000" y1="45.000000" x2="42.000000" y2="46.000000"  transform="rotate(0.000000,42.000000,46.000000)" style="stroke: black; stroke-width:0.25;"/>
<line x1="39.000000" y1="47.000000" x2="42.000000" y2="46.000000"  transform="rotate(0.000000,42.000000,46.000000)" style="stroke: black; stroke-width:0.25;"/>
<line x1="39.000000" y1="53.000000" x2="42.000000" y2="54.000000"  transform="rotate(0.000000,42.000000,54.000000)" style="stroke: black; stroke-width:0.25;"/>
<line x1="39.000000" y1="55.000000" x2="42.000000" y2="54.000000"  transform="rotate(0.000000,42.000000,54.000000)" style="stroke: black; stroke-width:0.25;"/>
<line x1="39.000000" y1="61.000000" x2="42.000000" y2="62.000000"  transform="rotate(0.000000,42.000000,62.000000)" style="stroke: black; stroke-width:0.25;"/>
<line x1="39.000000" y1="63.000000" x2="42.000000" y2="62.000000"  transform="rotate(0.000000,42.000000,62.000000)" style="stroke: black; stroke-width:0.25;"/>
<line x1="39.000000" y1="69.000000" x2="42.000000" y2="70.000000"  transform="rotate(0.000000,42.000000,70.000000)" style="stroke: black; stroke-width:0.25;"/>
<line x1="39.000000" y1="71.000000" x2="42.000000" y2="70.000000"  transform="rotate(0.000000,42.000000,70.000000)" style="stroke: black; stroke-width:0.25;"/>
<line x1="39.000000" y1="77.000000" x2="42.000000" y2="78.000000"  transform="rotate(0.000000,42.000000,78.000000)" style="stroke: black; stroke-width:0.25;"/>
<line x1="39.000000" y1="79.000000" x2="42.000000" y2="78.000000"  transform="rotate(0.000000,42.000000,78.000000)" style="stroke: black; stroke-width:0.25;"/>
<line x1="39.000000" y1="85.000000" x2="42.000000" y2="86.000000"  transform="rotate(0.000000,42.000000,86.000000)" style="stroke: black; stroke-width:0.25;"/>
<line x1="39.000000" y1="87.000000" x2="42.000000" y2="86.000000"  transform="rotate(0.000000,42.000000,86.000000)" style="stroke: black; stroke-width:0.25;"/>
<line x1="39.000000" y1="93.000000" x2="42.000000" y2="94.000000"  transform="rotate(0.000000,42.000000,94.000000)" style="stroke: black; stroke-width:0.25;"/>
<line x1="39.000000" y1="95.000000" x2="42.000000" y2="94.000000"  transform="rotate(0.000000,42.000000,94.000000)" style="stroke: black; stroke-width:0.25;"/>
<line x1="39.000000" y1="101.000000" x2="42.000000" y2="102.000000"  transform="rotate(0.000000,42.000000,102.000000)" style="stroke: black; stroke-width:0.25;"/>
<line x1="39.000000" y1="103.000000" x2="42.000000" y2="102.000000"  transform="rotate(0.000000,42.000000,102.000000)" style="stroke: black; stroke-width:0.25;"/>
<line x1="39.000000" y1="109.000000" x2="42.000000" y2="110.000000"  transform="rotate(0.000000,42.000000,110.000000)" style="stroke: black; stroke-width:0.25;"/>
<line x1="39.000000" y1="111.000000" x2="42.000000" y2="110.000000"  transform="rotate(0.000000,42.000000,110.000000)" style="stroke: black; stroke-width:0.25;"/>
<line x1="39.000000" y1="117.000000" x2="42.000000" y2="118.000000"  transform="rotate(0.000000,42.000000,118.000000)" style="stroke: black; stroke-width:0.25;"/>
<line x1="39.000000" y1="119.000000" x2="42.000000" y2="118.000000"  transform="rotate(0.000000,42.000000,118.000000)" style="stroke: black; stroke-width:0.25;"/>
<line x1="39.000000" y1="125.000000" x2="42.000000" y2="126.000000"  transform="rotate(0.000000,42.000000,126.000000)" style="stroke: black; stroke-width:0.25;"/>
<line x1="39.000000" y1="127.000000" x2="42.000000" y2="126.000000"  transform="rotate(0.000000,42.000000,126.000000)" style="stroke: black; stroke-width:0.25;"/>
<line x1="39.000000" y1="133.000000" x2="42.000000" y2="134.000000"  transform="rotate(0.000000,42.000000,134.000000)" style="stroke: black; stroke-width:0.25;"/>
<line x1="39.000000" y1="135.000000" x2="42.000000" y2="134.000000"  transform="rotate(0.000000,42.000000,134.000000)" style="stroke: black; stroke-width:0.25;"/>
<line x1="39.000000" y1="141.000000" x2="42.000000" y2="142.000000"  transform="rotate(0.000000,42.000000,142.000000)" style="stroke: black; stroke-width:0.25;"/>
<line x1="39.000000" y1="143.000000" x2="42.000000" y2="142.000000"  transform="rotate(0.000000,42.000000,142.000000)" style="stroke: black; stroke-width:0.25;"/>
<line x1="39.000000" y1="149.000000" x2="42.000000" y2="150.000000"  transform="rotate(0.000000,42.000000,150.000000)" style="stroke: black; stroke-width:0.25;"/>
<line x1="39.000000" y1="151.000000" x2="42.000000" y2="150.000000"  transform="rotate(0.000000,42.000000,150.000000)" style="stroke: black; stroke-width:0.25;"/>
<line x1="39.000000" y1="157.000000" x2="42.000000" y2="158.000000"  transform="rotate(0.000000,42.000000,158.000000)" style="stroke: black; stroke-width:0.25;"/>
<line x1="39.000000" y1="159.000000" x2="42.000000" y2="158.000000"  transform="rotate(0.000000,42.000000,158.000000)" style="stroke: black; stroke-width:0.25;"/>
<line x1="39.000000" y1="165.000000" x2="42.000000" y2="166.000000"  transform="rotate(0.000000,42.000000,166.000000)" style="stroke: black; stroke-width:0.25;"/>
<line x1="39.000000" y1="167.000000" x2="42.000000" y2="166.000000"  transform="rotate(0.000000,42.000000,166.000000)" style="stroke: black; stroke-width:0.25;"/>
<line x1="39.000000" y1="173.000000" x2="42.000000" y2="174.000000"  transform="rotate(0.000000,42.000000,174.000000)" style="stroke: black; stroke-width:0.25;"/>
<line x1="39.000000" y1="175.000000" x2="42.000000" y2="174.000000"  transform="rotate(0.000000,42.000000,174.000000)" style="stroke: black; stroke-width:0.25;"/>
<a xlink:href="inpeq-0x7f892546aab0.svg">
<rect x="118.600000" y="47.000000" width="25.800000" height="24.000000" rx="0" ry="0" style="stroke:none;fill:#cccccc;"/>
<rect x="117.600000" y="46.000000" width="25.800000" height="24.000000" rx="0" ry="0" style="stroke:none;fill:#003366;"/>
</a>
<a xlink:href="inpeq-0x7f892546aab0.svg">
<text x="130.500000" y="60.000000" font-family="Arial" font-size="7" text-anchor="middle" fill="#FFFFFF">inpeq</text>
</a>
<circle cx="119.600000" cy="48.000000" r="1"/>
<line x1="114.600000" y1="57.000000" x2="117.600000" y2="58.000000"  transform="rotate(0.000000,117.600000,58.000000)" style="stroke: black; stroke-width:0.25;"/>
<line x1="114.600000" y1="59.000000" x2="117.600000" y2="58.000000"  transform="rotate(0.000000,117.600000,58.000000)" style="stroke: black; stroke-width:0.25;"/>
<a xlink:href="inpeq-0x7f892546aab0.svg">
<rect x="118.600000" y="79.000000" width="25.800000" height="24.000000" rx="0" ry="0" style="stroke:none;fill:#cccccc;"/>
<rect x="117.600000" y="78.000000" width="25.800000" height="24.000000" rx="0" ry="0" style="stroke:none;fill:#003366;"/>
</a>
<a xlink:href="inpeq-0x7f892546aab0.svg">
<text x="130.500000" y="92.000000" font-family="Arial" font-size="7" text-anchor="middle" fill="#FFFFFF">inpeq</text>
</a>
<circle cx="119.600000" cy="80.000000" r="1"/>
<line x1="114.600000" y1="89.000000" x2="117.600000" y2="90.000000"  transform="rotate(0.000000,117.600000,90.000000)" style="stroke: black; stroke-width:0.25;"/>
<line x1="114.600000" y1="91.000000" x2="117.600000" y2="90.000000"  transform="rotate(0.000000,117.600000,90.000000)" style="stroke: black; stroke-width:0.25;"/>
<a xlink:href="inpeq-0x7f892546aab0.svg">
<rect x="118.600000" y="111.000000" width="25.800000" height="24.000000" rx="0" ry="0" style="stroke:none;fill:#cccccc;"/>
<rect x="117.600000" y="110.000000" width="25.800000" height="24.000000" rx="0" ry="0" style="stroke:none;fill:#003366;"/>
</a>
<a xlink:href="inpeq-0x7f892546aab0.svg">
<text x="130.500000" y="124.000000" font-family="Arial" font-size="7" text-anchor="middle" fill="#FFFFFF">inpeq</text>
</a>
<circle cx="119.600000" cy="112.000000" r="1"/>
<line x1="114.600000" y1="121.000000" x2="117.600000" y2="122.000000"  transform="rotate(0.000000,117.600000,122.000000)" style="stroke: black; stroke-width:0.25;"/>
<line x1="114.600000" y1="123.000000" x2="117.600000" y2="122.000000"  transform="rotate(0.000000,117.600000,122.000000)" style="stroke: black; stroke-width:0.25;"/>
<a xlink:href="inpeq-0x7f892546aab0.svg">
<rect x="118.600000" y="143.000000" width="25.800000" height="24.000000" rx="0" ry="0" style="stroke:none;fill:#cccccc;"/>
<rect x="117.600000" y="142.000000" width="25.800000" height="24.000000" rx="0" ry="0" style="stroke:none;fill:#003366;"/>
</a>
<a xlink:href="inpeq-0x7f892546aab0.svg">
<text x="130.500000" y="156.000000" font-family="Arial" font-size="7" text-anchor="middle" fill="#FFFFFF">inpeq</text>
</a>
<circle cx="119.600000" cy="144.000000" r="1"/>
<line x1="114.600000" y1="153.000000" x2="117.600000" y2="154.000000"  transform="rotate(0.000000,117.600000,154.000000)" style="stroke: black; stroke-width:0.25;"/>
<line x1="114.600000" y1="155.000000" x2="117.600000" y2="154.000000"  transform="rotate(0.000000,117.600000,154.000000)" style="stroke: black; stroke-width:0.25;"/>
<line x1="33.000000" y1="25.000000" x2="33.000000" y2="187.000000"  style="stroke: black; stroke-linecap:round; stroke-width:0.25; stroke-dasharray:3,3;"/>
<line x1="33.000000" y1="187.000000" x2="152.400000" y2="187.000000"  style="stroke: black; stroke-linecap:round; stroke-width:0.25; stroke-dasharray:3,3;"/>
<line x1="152.400000" y1="187.000000" x2="152.400000" y2="25.000000"  style="stroke: black; stroke-linecap:round; stroke-width:0.25; stroke-dasharray:3,3;"/>
<line x1="33.000000" y1="25.000000" x2="38.000000" y2="25.000000"  style="stroke: black; stroke-linecap:round; stroke-width:0.25; stroke-dasharray:3,3;"/>
<line x1="141.200000" y1="25.000000" x2="152.400000" y2="25.000000"  style="stroke: black; stroke-linecap:round; stroke-width:0.25; stroke-dasharray:3,3;"/>
<text x="38.000000" y="27.000000" font-family="Arial" font-size="7">vgroup(B-FORMAT INPUT CHANNEL)</text>
<line x1="15.000000" y1="15.000000" x2="15.000000" y2="197.000000"  style="stroke: black; stroke-linecap:round; stroke-width:0.25; stroke-dasharray:3,3;"/>
<line x1="15.000000" y1="197.000000" x2="186.400000" y2="197.000000"  style="stroke: black; stroke-linecap:round; stroke-width:0.25; stroke-dasharray:3,3;"/>
<line x1="186.400000" y1="197.000000" x2="186.400000" y2="15.000000"  style="stroke: black; stroke-linecap:round; stroke-width:0.25; stroke-dasharray:3,3;"/>
<line x1="15.000000" y1="15.000000" x2="20.000000" y2="15.000000"  style="stroke: black; stroke-linecap:round; stroke-width:0.25; stroke-dasharray:3,3;"/>
<line x1="49.025000" y1="15.000000" x2="186.400000" y2="15.000000"  style="stroke: black; stroke-linecap:round; stroke-width:0.25; stroke-dasharray:3,3;"/>
<text x="20.000000" y="17.000000" font-family="Arial" font-size="7">wxyzrip</text>
<line x1="188.400000" y1="93.000000" x2="191.400000" y2="94.000000"  transform="rotate(0.000000,191.400000,94.000000)" style="stroke: black; stroke-width:0.25;"/>
<line x1="188.400000" y1="95.000000" x2="191.400000" y2="94.000000"  transform="rotate(0.000000,191.400000,94.000000)" style="stroke: black; stroke-width:0.25;"/>
<line x1="188.400000" y1="101.000000" x2="191.400000" y2="102.000000"  transform="rotate(0.000000,191.400000,102.000000)" style="stroke: black; stroke-width:0.25;"/>
<line x1="188.400000" y1="103.000000" x2="191.400000" y2="102.000000"  transform="rotate(0.000000,191.400000,102.000000)" style="stroke: black; stroke-width:0.25;"/>
<line x1="188.400000" y1="109.000000" x2="191.400000" y2="110.000000"  transform="rotate(0.000000,191.400000,110.000000)" style="stroke: black; stroke-width:0.25;"/>
<line x1="188.400000" y1="111.000000" x2="191.400000" y2="110.000000"  transform="rotate(0.000000,191.400000,110.000000)" style="stroke: black; stroke-width:0.25;"/>
<line x1="188.400000" y1="117.000000" x2="191.400000" y2="118.000000"  transform="rotate(0.000000,191.400000,118.000000)" style="stroke: black; stroke-width:0.25;"/>
<line x1="188.400000" y1="119.000000" x2="191.400000" y2="118.000000"  transform="rotate(0.000000,191.400000,118.000000)" style="stroke: black; stroke-width:0.25;"/>
<line x1="10.000000" y1="38.000000" x2="20.000000" y2="38.000000"  style="stroke:black; stroke-linecap:round; stroke-width:0.25;"/>
<line x1="10.000000" y1="46.000000" x2="20.000000" y2="46.000000"  style="stroke:black; stroke-linecap:round; stroke-width:0.25;"/>
<line x1="10.000000" y1="54.000000" x2="20.000000" y2="54.000000"  style="stroke:black; stroke-linecap:round; stroke-width:0.25;"/>
<line x1="10.000000" y1="62.000000" x2="20.000000" y2="62.000000"  style="stroke:black; stroke-linecap:round; stroke-width:0.25;"/>
<line x1="10.000000" y1="70.000000" x2="20.000000" y2="70.000000"  style="stroke:black; stroke-linecap:round; stroke-width:0.25;"/>
<line x1="10.000000" y1="78.000000" x2="20.000000" y2="78.000000"  style="stroke:black; stroke-linecap:round; stroke-width:0.25;"/>
<line x1="10.000000" y1="86.000000" x2="20.000000" y2="86.000000"  style="stroke:black; stroke-linecap:round; stroke-width:0.25;"/>
<line x1="10.000000" y1="94.000000" x2="20.000000" y2="94.000000"  style="stroke:black; stroke-linecap:round; stroke-width:0.25;"/>
<line x1="10.000000" y1="102.000000" x2="20.000000" y2="102.000000"  style="stroke:black; stroke-linecap:round; stroke-width:0.25;"/>
<line x1="10.000000" y1="110.000000" x2="20.000000" y2="110.000000"  style="stroke:black; stroke-linecap:round; stroke-width:0.25;"/>
<line x1="10.000000" y1="118.000000" x2="20.000000" y2="118.000000"  style="stroke:black; stroke-linecap:round; stroke-width:0.25;"/>
<line x1="10.000000" y1="126.000000" x2="20.000000" y2="126.000000"  style="stroke:black; stroke-linecap:round; stroke-width:0.25;"/>
<line x1="10.000000" y1="134.000000" x2="20.000000" y2="134.000000"  style="stroke:black; stroke-linecap:round; stroke-width:0.25;"/>
<line x1="10.000000" y1="142.000000" x2="20.000000" y2="142.000000"  style="stroke:black; stroke-linecap:round; stroke-width:0.25;"/>
<line x1="10.000000" y1="150.000000" x2="20.000000" y2="150.000000"  style="stroke:black; stroke-linecap:round; stroke-width:0.25;"/>
<line x1="10.000000" y1="158.000000" x2="20.000000" y2="158.000000"  style="stroke:black; stroke-linecap:round; stroke-width:0.25;"/>
<line x1="10.000000" y1="166.000000" x2="20.000000" y2="166.000000"  style="stroke:black; stroke-linecap:round; stroke-width:0.25;"/>
<line x1="10.000000" y1="174.000000" x2="20.000000" y2="174.000000"  style="stroke:black; stroke-linecap:round; stroke-width:0.25;"/>
<line x1="20.000000" y1="38.000000" x2="24.000000" y2="38.000000"  style="stroke:black; stroke-linecap:round; stroke-width:0.25;"/>
<line x1="20.000000" y1="46.000000" x2="24.000000" y2="46.000000"  style="stroke:black; stroke-linecap:round; stroke-width:0.25;"/>
<line x1="20.000000" y1="54.000000" x2="24.000000" y2="54.000000"  style="stroke:black; stroke-linecap:round; stroke-width:0.25;"/>
<line x1="20.000000" y1="62.000000" x2="24.000000" y2="62.000000"  style="stroke:black; stroke-linecap:round; stroke-width:0.25;"/>
<line x1="20.000000" y1="70.000000" x2="24.000000" y2="70.000000"  style="stroke:black; stroke-linecap:round; stroke-width:0.25;"/>
<line x1="20.000000" y1="78.000000" x2="24.000000" y2="78.000000"  style="stroke:black; stroke-linecap:round; stroke-width:0.25;"/>
<line x1="20.000000" y1="86.000000" x2="24.000000" y2="86.000000"  style="stroke:black; stroke-linecap:round; stroke-width:0.25;"/>
<line x1="20.000000" y1="94.000000" x2="24.000000" y2="94.000000"  style="stroke:black; stroke-linecap:round; stroke-width:0.25;"/>
<line x1="20.000000" y1="102.000000" x2="24.000000" y2="102.000000"  style="stroke:black; stroke-linecap:round; stroke-width:0.25;"/>
<line x1="20.000000" y1="110.000000" x2="24.000000" y2="110.000000"  style="stroke:black; stroke-linecap:round; stroke-width:0.25;"/>
<line x1="20.000000" y1="118.000000" x2="24.000000" y2="118.000000"  style="stroke:black; stroke-linecap:round; stroke-width:0.25;"/>
<line x1="20.000000" y1="126.000000" x2="24.000000" y2="126.000000"  style="stroke:black; stroke-linecap:round; stroke-width:0.25;"/>
<line x1="20.000000" y1="134.000000" x2="24.000000" y2="134.000000"  style="stroke:black; stroke-linecap:round; stroke-width:0.25;"/>
<line x1="20.000000" y1="142.000000" x2="24.000000" y2="142.000000"  style="stroke:black; stroke-linecap:round; stroke-width:0.25;"/>
<line x1="20.000000" y1="150.000000" x2="24.000000" y2="150.000000"  style="stroke:black; stroke-linecap:round; stroke-width:0.25;"/>
<line x1="20.000000" y1="158.000000" x2="24.000000" y2="158.000000"  style="stroke:black; stroke-linecap:round; stroke-width:0.25;"/>
<line x1="20.000000" y1="166.000000" x2="24.000000" y2="166.000000"  style="stroke:black; stroke-linecap:round; stroke-width:0.25;"/>
<line x1="20.000000" y1="174.000000" x2="24.000000" y2="174.000000"  style="stroke:black; stroke-linecap:round; stroke-width:0.25;"/>
<line x1="24.000000" y1="38.000000" x2="28.000000" y2="38.000000"  style="stroke:black; stroke-linecap:round; stroke-width:0.25;"/>
<line x1="24.000000" y1="46.000000" x2="28.000000" y2="46.000000"  style="stroke:black; stroke-linecap:round; stroke-width:0.25;"/>
<line x1="24.000000" y1="54.000000" x2="28.000000" y2="54.000000"  style="stroke:black; stroke-linecap:round; stroke-width:0.25;"/>
<line x1="24.000000" y1="62.000000" x2="28.000000" y2="62.000000"  style="stroke:black; stroke-linecap:round; stroke-width:0.25;"/>
<line x1="24.000000" y1="70.000000" x2="28.000000" y2="70.000000"  style="stroke:black; stroke-linecap:round; stroke-width:0.25;"/>
<line x1="24.000000" y1="78.000000" x2="28.000000" y2="78.000000"  style="stroke:black; stroke-linecap:round; stroke-width:0.25;"/>
<line x1="24.000000" y1="86.000000" x2="28.000000" y2="86.000000"  style="stroke:black; stroke-linecap:round; stroke-width:0.25;"/>
<line x1="24.000000" y1="94.000000" x2="28.000000" y2="94.000000"  style="stroke:black; stroke-linecap:round; stroke-width:0.25;"/>
<line x1="24.000000" y1="102.000000" x2="28.000000" y2="102.000000"  style="stroke:black; stroke-linecap:round; stroke-width:0.25;"/>
<line x1="24.000000" y1="110.000000" x2="28.000000" y2="110.000000"  style="stroke:black; stroke-linecap:round; stroke-width:0.25;"/>
<line x1="24.000000" y1="118.000000" x2="28.000000" y2="118.000000"  style="stroke:black; stroke-linecap:round; stroke-width:0.25;"/>
<line x1="24.000000" y1="126.000000" x2="28.000000" y2="126.000000"  style="stroke:black; stroke-linecap:round; stroke-width:0.25;"/>
<line x1="24.000000" y1="134.000000" x2="28.000000" y2="134.000000"  style="stroke:black; stroke-linecap:round; stroke-width:0.25;"/>
<line x1="24.000000" y1="142.000000" x2="28.000000" y2="142.000000"  style="stroke:black; stroke-linecap:round; stroke-width:0.25;"/>
<line x1="24.000000" y1="150.000000" x2="28.000000" y2="150.000000"  style="stroke:black; stroke-linecap:round; stroke-width:0.25;"/>
<line x1="24.000000" y1="158.000000" x2="28.000000" y2="158.000000"  style="stroke:black; stroke-linecap:round; stroke-width:0.25;"/>
<line x1="24.000000" y1="166.000000" x2="28.000000" y2="166.000000"  style="stroke:black; stroke-linecap:round; stroke-width:0.25;"/>
<line x1="24.000000" y1="174.000000" x2="28.000000" y2="174.000000"  style="stroke:black; stroke-linecap:round; stroke-width:0.25;"/>
<line x1="28.000000" y1="38.000000" x2="28.000000" y2="38.000000"  style="stroke:black; stroke-linecap:round; stroke-width:0.25;"/>
<line x1="28.000000" y1="38.000000" x2="38.000000" y2="38.000000"  style="stroke:black; stroke-linecap:round; stroke-width:0.25;"/>
<line x1="28.000000" y1="46.000000" x2="28.000000" y2="46.000000"  style="stroke:black; stroke-linecap:round; stroke-width:0.25;"/>
<line x1="28.000000" y1="46.000000" x2="38.000000" y2="46.000000"  style="stroke:black; stroke-linecap:round; stroke-width:0.25;"/>
<line x1="28.000000" y1="54.000000" x2="28.000000" y2="54.000000"  style="stroke:black; stroke-linecap:round; stroke-width:0.25;"/>
<line x1="28.000000" y1="54.000000" x2="38.000000" y2="54.000000"  style="stroke:black; stroke-linecap:round; stroke-width:0.25;"/>
<line x1="28.000000" y1="62.000000" x2="28.000000" y2="62.000000"  style="stroke:black; stroke-linecap:round; stroke-width:0.25;"/>
<line x1="28.000000" y1="62.000000" x2="38.000000" y2="62.000000"  style="stroke:black; stroke-linecap:round; stroke-width:0.25;"/>
<line x1="28.000000" y1="70.000000" x2="28.000000" y2="70.000000"  style="stroke:black; stroke-linecap:round; stroke-width:0.25;"/>
<line x1="28.000000" y1="70.000000" x2="38.000000" y2="70.000000"  style="stroke:black; stroke-linecap:round; stroke-width:0.25;"/>
<line x1="28.000000" y1="78.000000" x2="28.000000" y2="78.000000"  style="stroke:black; stroke-linecap:round; stroke-width:0.25;"/>
<line x1="28.000000" y1="78.000000" x2="38.000000" y2="78.000000"  style="stroke:black; stroke-linecap:round; stroke-width:0.25;"/>
<line x1="28.000000" y1="86.000000" x2="28.000000" y2="86.000000"  style="stroke:black; stroke-linecap:round; stroke-width:0.25;"/>
<line x1="28.000000" y1="86.000000" x2="38.000000" y2="86.000000"  style="stroke:black; stroke-linecap:round; stroke-width:0.25;"/>
<line x1="28.000000" y1="94.000000" x2="28.000000" y2="94.000000"  style="stroke:black; stroke-linecap:round; stroke-width:0.25;"/>
<line x1="28.000000" y1="94.000000" x2="38.000000" y2="94.000000"  style="stroke:black; stroke-linecap:round; stroke-width:0.25;"/>
<line x1="28.000000" y1="102.000000" x2="28.000000" y2="102.000000"  style="stroke:black; stroke-linecap:round; stroke-width:0.25;"/>
<line x1="28.000000" y1="102.000000" x2="38.000000" y2="102.000000"  style="stroke:black; stroke-linecap:round; stroke-width:0.25;"/>
<line x1="28.000000" y1="110.000000" x2="28.000000" y2="110.000000"  style="stroke:black; stroke-linecap:round; stroke-width:0.25;"/>
<line x1="28.000000" y1="110.000000" x2="38.000000" y2="110.000000"  style="stroke:black; stroke-linecap:round; stroke-width:0.25;"/>
<line x1="28.000000" y1="118.000000" x2="28.000000" y2="118.000000"  style="stroke:black; stroke-linecap:round; stroke-width:0.25;"/>
<line x1="28.000000" y1="118.000000" x2="38.000000" y2="118.000000"  style="stroke:black; stroke-linecap:round; stroke-width:0.25;"/>
<line x1="28.000000" y1="126.000000" x2="28.000000" y2="126.000000"  style="stroke:black; stroke-linecap:round; stroke-width:0.25;"/>
<line x1="28.000000" y1="126.000000" x2="38.000000" y2="126.000000"  style="stroke:black; stroke-linecap:round; stroke-width:0.25;"/>
<line x1="28.000000" y1="134.000000" x2="28.000000" y2="134.000000"  style="stroke:black; stroke-linecap:round; stroke-width:0.25;"/>
<line x1="28.000000" y1="134.000000" x2="38.000000" y2="134.000000"  style="stroke:black; stroke-linecap:round; stroke-width:0.25;"/>
<line x1="28.000000" y1="142.000000" x2="28.000000" y2="142.000000"  style="stroke:black; stroke-linecap:round; stroke-width:0.25;"/>
<line x1="28.000000" y1="142.000000" x2="38.000000" y2="142.000000"  style="stroke:black; stroke-linecap:round; stroke-width:0.25;"/>
<line x1="28.000000" y1="150.000000" x2="28.000000" y2="150.000000"  style="stroke:black; stroke-linecap:round; stroke-width:0.25;"/>
<line x1="28.000000" y1="150.000000" x2="38.000000" y2="150.000000"  style="stroke:black; stroke-linecap:round; stroke-width:0.25;"/>
<line x1="28.000000" y1="158.000000" x2="28.000000" y2="158.000000"  style="stroke:black; stroke-linecap:round; stroke-width:0.25;"/>
<line x1="28.000000" y1="158.000000" x2="38.000000" y2="158.000000"  style="stroke:black; stroke-linecap:round; stroke-width:0.25;"/>
<line x1="28.000000" y1="166.000000" x2="28.000000" y2="166.000000"  style="stroke:black; stroke-linecap:round; stroke-width:0.25;"/>
<line x1="28.000000" y1="166.000000" x2="38.000000" y2="166.000000"  style="stroke:black; stroke-linecap:round; stroke-width:0.25;"/>
<line x1="28.000000" y1="174.000000" x2="28.000000" y2="174.000000"  style="stroke:black; stroke-linecap:round; stroke-width:0.25;"/>
<line x1="28.000000" y1="174.000000" x2="38.000000" y2="174.000000"  style="stroke:black; stroke-linecap:round; stroke-width:0.25;"/>
<line x1="38.000000" y1="38.000000" x2="42.000000" y2="38.000000"  style="stroke:black; stroke-linecap:round; stroke-width:0.25;"/>
<line x1="38.000000" y1="46.000000" x2="42.000000" y2="46.000000"  style="stroke:black; stroke-linecap:round; stroke-width:0.25;"/>
<line x1="38.000000" y1="54.000000" x2="42.000000" y2="54.000000"  style="stroke:black; stroke-linecap:round; stroke-width:0.25;"/>
<line x1="38.000000" y1="62.000000" x2="42.000000" y2="62.000000"  style="stroke:black; stroke-linecap:round; stroke-width:0.25;"/>
<line x1="38.000000" y1="70.000000" x2="42.000000" y2="70.000000"  style="stroke:black; stroke-linecap:round; stroke-width:0.25;"/>
<line x1="38.000000" y1="78.000000" x2="42.000000" y2="78.000000"  style="stroke:black; stroke-linecap:round; stroke-width:0.25;"/>
<line x1="38.000000" y1="86.000000" x2="42.000000" y2="86.000000"  style="stroke:black; stroke-linecap:round; stroke-width:0.25;"/>
<line x1="38.000000" y1="94.000000" x2="42.000000" y2="94.000000"  style="stroke:black; stroke-linecap:round; stroke-width:0.25;"/>
<line x1="38.000000" y1="102.000000" x2="42.000000" y2="102.000000"  style="stroke:black; stroke-linecap:round; stroke-width:0.25;"/>
<line x1="38.000000" y1="110.000000" x2="42.000000" y2="110.000000"  style="stroke:black; stroke-linecap:round; stroke-width:0.25;"/>
<line x1="38.000000" y1="118.000000" x2="42.000000" y2="118.000000"  style="stroke:black; stroke-linecap:round; stroke-width:0.25;"/>
<line x1="38.000000" y1="126.000000" x2="42.000000" y2="126.000000"  style="stroke:black; stroke-linecap:round; stroke-width:0.25;"/>
<line x1="38.000000" y1="134.000000" x2="42.000000" y2="134.000000"  style="stroke:black; stroke-linecap:round; stroke-width:0.25;"/>
<line x1="38.000000" y1="142.000000" x2="42.000000" y2="142.000000"  style="stroke:black; stroke-linecap:round; stroke-width:0.25;"/>
<line x1="38.000000" y1="150.000000" x2="42.000000" y2="150.000000"  style="stroke:black; stroke-linecap:round; stroke-width:0.25;"/>
<line x1="38.000000" y1="158.000000" x2="42.000000" y2="158.000000"  style="stroke:black; stroke-linecap:round; stroke-width:0.25;"/>
<line x1="38.000000" y1="166.000000" x2="42.000000" y2="166.000000"  style="stroke:black; stroke-linecap:round; stroke-width:0.25;"/>
<line x1="38.000000" y1="174.000000" x2="42.000000" y2="174.000000"  style="stroke:black; stroke-linecap:round; stroke-width:0.25;"/>
<line x1="93.600000" y1="94.000000" x2="97.600000" y2="94.000000"  style="stroke:black; stroke-linecap:round; stroke-width:0.25;"/>
<line x1="93.600000" y1="102.000000" x2="97.600000" y2="102.000000"  style="stroke:black; stroke-linecap:round; stroke-width:0.25;"/>
<line x1="93.600000" y1="110.000000" x2="97.600000" y2="110.000000"  style="stroke:black; stroke-linecap:round; stroke-width:0.25;"/>
<line x1="93.600000" y1="118.000000" x2="97.600000" y2="118.000000"  style="stroke:black; stroke-linecap:round; stroke-width:0.25;"/>
<line x1="97.600000" y1="58.000000" x2="113.600000" y2="58.000000"  style="stroke:black; stroke-linecap:round; stroke-width:0.25;"/>
<line x1="97.600000" y1="94.000000" x2="97.600000" y2="58.000000"  style="stroke:black; stroke-linecap:round; stroke-width:0.25;"/>
<line x1="97.600000" y1="94.000000" x2="97.600000" y2="94.000000"  style="stroke:black; stroke-linecap:round; stroke-width:0.25;"/>
<line x1="97.600000" y1="102.000000" x2="105.600000" y2="102.000000"  style="stroke:black; stroke-linecap:round; stroke-width:0.25;"/>
<line x1="97.600000" y1="110.000000" x2="113.600000" y2="110.000000"  style="stroke:black; stroke-linecap:round; stroke-width:0.25;"/>
<line x1="97.600000" y1="118.000000" x2="105.600000" y2="118.000000"  style="stroke:black; stroke-linecap:round; stroke-width:0.25;"/>
<line x1="105.600000" y1="90.000000" x2="113.600000" y2="90.000000"  style="stroke:black; stroke-linecap:round; stroke-width:0.25;"/>
<line x1="105.600000" y1="102.000000" x2="105.600000" y2="90.000000"  style="stroke:black; stroke-linecap:round; stroke-width:0.25;"/>
<line x1="105.600000" y1="118.000000" x2="105.600000" y2="154.000000"  style="stroke:black; stroke-linecap:round; stroke-width:0.25;"/>
<line x1="105.600000" y1="154.000000" x2="113.600000" y2="154.000000"  style="stroke:black; stroke-linecap:round; stroke-width:0.25;"/>
<line x1="113.600000" y1="58.000000" x2="117.600000" y2="58.000000"  style="stroke:black; stroke-linecap:round; stroke-width:0.25;"/>
<line x1="113.600000" y1="90.000000" x2="117.600000" y2="90.000000"  style="stroke:black; stroke-linecap:round; stroke-width:0.25;"/>
<line x1="113.600000" y1="110.000000" x2="113.600000" y2="122.000000"  style="stroke:black; stroke-linecap:round; stroke-width:0.25;"/>
<line x1="113.600000" y1="122.000000" x2="113.600000" y2="122.000000"  style="stroke:black; stroke-linecap:round; stroke-width:0.25;"/>
<line x1="113.600000" y1="122.000000" x2="117.600000" y2="122.000000"  style="stroke:black; stroke-linecap:round; stroke-width:0.25;"/>
<line x1="113.600000" y1="154.000000" x2="117.600000" y2="154.000000"  style="stroke:black; stroke-linecap:round; stroke-width:0.25;"/>
<line x1="143.400000" y1="58.000000" x2="147.400000" y2="58.000000"  style="stroke:black; stroke-linecap:round; stroke-width:0.25;"/>
<line x1="143.400000" y1="90.000000" x2="147.400000" y2="90.000000"  style="stroke:black; stroke-linecap:round; stroke-width:0.25;"/>
<line x1="143.400000" y1="122.000000" x2="147.400000" y2="122.000000"  style="stroke:black; stroke-linecap:round; stroke-width:0.25;"/>
<line x1="143.400000" y1="154.000000" x2="147.400000" y2="154.000000"  style="stroke:black; stroke-linecap:round; stroke-width:0.25;"/>
<line x1="147.400000" y1="58.000000" x2="157.400000" y2="58.000000"  style="stroke:black; stroke-linecap:round; stroke-width:0.25;"/>
<line x1="147.400000" y1="90.000000" x2="157.400000" y2="90.000000"  style="stroke:black; stroke-linecap:round; stroke-width:0.25;"/>
<line x1="147.400000" y1="122.000000" x2="157.400000" y2="122.000000"  style="stroke:black; stroke-linecap:round; stroke-width:0.25;"/>
<line x1="147.400000" y1="154.000000" x2="157.400000" y2="154.000000"  style="stroke:black; stroke-linecap:round; stroke-width:0.25;"/>
<line x1="157.400000" y1="58.000000" x2="173.400000" y2="58.000000"  style="stroke:black; stroke-linecap:round; stroke-width:0.25;"/>
<line x1="157.400000" y1="90.000000" x2="165.400000" y2="90.000000"  style="stroke:black; stroke-linecap:round; stroke-width:0.25;"/>
<line x1="157.400000" y1="110.000000" x2="173.400000" y2="110.000000"  style="stroke:black; stroke-linecap:round; stroke-width:0.25;"/>
<line x1="157.400000" y1="122.000000" x2="157.400000" y2="110.000000"  style="stroke:black; stroke-linecap:round; stroke-width:0.25;"/>
<line x1="157.400000" y1="122.000000" x2="157.400000" y2="122.000000"  style="stroke:black; stroke-linecap:round; stroke-width:0.25;"/>
<line x1="157.400000" y1="154.000000" x2="165.400000" y2="154.000000"  style="stroke:black; stroke-linecap:round; stroke-width:0.25;"/>
<line x1="165.400000" y1="90.000000" x2="165.400000" y2="102.000000"  style="stroke:black; stroke-linecap:round; stroke-width:0.25;"/>
<line x1="165.400000" y1="102.000000" x2="173.400000" y2="102.000000"  style="stroke:black; stroke-linecap:round; stroke-width:0.25;"/>
<line x1="165.400000" y1="118.000000" x2="173.400000" y2="118.000000"  style="stroke:black; stroke-linecap:round; stroke-width:0.25;"/>
<line x1="165.400000" y1="154.000000" x2="165.400000" y2="118.000000"  style="stroke:black; stroke-linecap:round; stroke-width:0.25;"/>
<line x1="173.400000" y1="58.000000" x2="173.400000" y2="94.000000"  style="stroke:black; stroke-linecap:round; stroke-width:0.25;"/>
<line x1="173.400000" y1="94.000000" x2="173.400000" y2="94.000000"  style="stroke:black; stroke-linecap:round; stroke-width:0.25;"/>
<line x1="173.400000" y1="94.000000" x2="177.400000" y2="94.000000"  style="stroke:black; stroke-linecap:round; stroke-width:0.25;"/>
<line x1="173.400000" y1="102.000000" x2="177.400000" y2="102.000000"  style="stroke:black; stroke-linecap:round; stroke-width:0.25;"/>
<line x1="173.400000" y1="110.000000" x2="177.400000" y2="110.000000"  style="stroke:black; stroke-linecap:round; stroke-width:0.25;"/>
<line x1="173.400000" y1="118.000000" x2="177.400000" y2="118.000000"  style="stroke:black; stroke-linecap:round; stroke-width:0.25;"/>
<line x1="177.400000" y1="94.000000" x2="181.400000" y2="94.000000"  style="stroke:black; stroke-linecap:round; stroke-width:0.25;"/>
<line x1="177.400000" y1="102.000000" x2="181.400000" y2="102.000000"  style="stroke:black; stroke-linecap:round; stroke-width:0.25;"/>
<line x1="177.400000" y1="110.000000" x2="181.400000" y2="110.000000"  style="stroke:black; stroke-linecap:round; stroke-width:0.25;"/>
<line x1="177.400000" y1="118.000000" x2="181.400000" y2="118.000000"  style="stroke:black; stroke-linecap:round; stroke-width:0.25;"/>
<line x1="181.400000" y1="94.000000" x2="191.400000" y2="94.000000"  style="stroke:black; stroke-linecap:round; stroke-width:0.25;"/>
<line x1="181.400000" y1="102.000000" x2="191.400000" y2="102.000000"  style="stroke:black; stroke-linecap:round; stroke-width:0.25;"/>
<line x1="181.400000" y1="110.000000" x2="191.400000" y2="110.000000"  style="stroke:black; stroke-linecap:round; stroke-width:0.25;"/>
<line x1="181.400000" y1="118.000000" x2="191.400000" y2="118.000000"  style="stroke:black; stroke-linecap:round; stroke-width:0.25;"/>
</svg>
