<?xml version="1.0"?>
<svg xmlns="http://www.w3.org/2000/svg" xmlns:xlink="http://www.w3.org/1999/xlink" viewBox="0 0 355.800000 72.000000" width="177.900000mm" height="36.000000mm" version="1.1">
<a xlink:href="output-0x7fec3bc44800.svg">
<rect x="1.000000" y="1.000000" width="354.800000" height="71.000000" rx="0" ry="0" style="stroke:none;fill:#cccccc;"/>
<rect x="0.000000" y="0.000000" width="354.800000" height="71.000000" rx="0" ry="0" style="stroke:none;fill:#ffffff;"/>
</a>
<text x="10.000000" y="7.000000" font-family="Arial" font-size="7"></text>
<rect x="25.000000" y="25.000000" width="219.300000" height="24.000000" rx="0" ry="0" style="stroke:none;fill:#cccccc;"/>
<rect x="24.000000" y="24.000000" width="219.300000" height="24.000000" rx="0" ry="0" style="stroke:none;fill:#477881;"/>
<text x="133.650000" y="38.000000" font-family="Arial" font-size="7" text-anchor="middle" fill="#FFFFFF">vslider(, 0.0f, -70.0f, 6.0f, 0.10000000000000001f)</text>
<circle cx="26.000000" cy="26.000000" r="1"/>
<a xlink:href="db2linear-0x7fec3bc31ee0.svg">
<rect x="252.300000" y="25.000000" width="38.700000" height="24.000000" rx="0" ry="0" style="stroke:none;fill:#cccccc;"/>
<rect x="251.300000" y="24.000000" width="38.700000" height="24.000000" rx="0" ry="0" style="stroke:none;fill:#003366;"/>
</a>
<a xlink:href="db2linear-0x7fec3bc31ee0.svg">
<text x="270.650000" y="38.000000" font-family="Arial" font-size="7" text-anchor="middle" fill="#FFFFFF">db2linear</text>
</a>
<circle cx="253.300000" cy="26.000000" r="1"/>
<line x1="248.300000" y1="35.000000" x2="251.300000" y2="36.000000"  transform="rotate(0.000000,251.300000,36.000000)" style="stroke: black; stroke-width:0.25;"/>
<line x1="248.300000" y1="37.000000" x2="251.300000" y2="36.000000"  transform="rotate(0.000000,251.300000,36.000000)" style="stroke: black; stroke-width:0.25;"/>
<a xlink:href="smoo-0x7fec3a498eb0.svg">
<rect x="299.000000" y="25.000000" width="25.800000" height="24.000000" rx="0" ry="0" style="stroke:none;fill:#cccccc;"/>
<rect x="298.000000" y="24.000000" width="25.800000" height="24.000000" rx="0" ry="0" style="stroke:none;fill:#003366;"/>
</a>
<a xlink:href="smoo-0x7fec3a498eb0.svg">
<text x="310.900000" y="38.000000" font-family="Arial" font-size="7" text-anchor="middle" fill="#FFFFFF">smoo</text>
</a>
<circle cx="300.000000" cy="26.000000" r="1"/>
<line x1="295.000000" y1="35.000000" x2="298.000000" y2="36.000000"  transform="rotate(0.000000,298.000000,36.000000)" style="stroke: black; stroke-width:0.25;"/>
<line x1="295.000000" y1="37.000000" x2="298.000000" y2="36.000000"  transform="rotate(0.000000,298.000000,36.000000)" style="stroke: black; stroke-width:0.25;"/>
<line x1="15.000000" y1="15.000000" x2="15.000000" y2="57.000000"  style="stroke: black; stroke-linecap:round; stroke-width:0.25; stroke-dasharray:3,3;"/>
<line x1="15.000000" y1="57.000000" x2="340.800000" y2="57.000000"  style="stroke: black; stroke-linecap:round; stroke-width:0.25; stroke-dasharray:3,3;"/>
<line x1="340.800000" y1="57.000000" x2="340.800000" y2="15.000000"  style="stroke: black; stroke-linecap:round; stroke-width:0.25; stroke-dasharray:3,3;"/>
<line x1="15.000000" y1="15.000000" x2="20.000000" y2="15.000000"  style="stroke: black; stroke-linecap:round; stroke-width:0.25; stroke-dasharray:3,3;"/>
<line x1="36.125000" y1="15.000000" x2="340.800000" y2="15.000000"  style="stroke: black; stroke-linecap:round; stroke-width:0.25; stroke-dasharray:3,3;"/>
<text x="20.000000" y="17.000000" font-family="Arial" font-size="7">g88</text>
<line x1="342.800000" y1="35.000000" x2="345.800000" y2="36.000000"  transform="rotate(0.000000,345.800000,36.000000)" style="stroke: black; stroke-width:0.25;"/>
<line x1="342.800000" y1="37.000000" x2="345.800000" y2="36.000000"  transform="rotate(0.000000,345.800000,36.000000)" style="stroke: black; stroke-width:0.25;"/>
<line x1="243.300000" y1="36.000000" x2="247.300000" y2="36.000000"  style="stroke:black; stroke-linecap:round; stroke-width:0.25;"/>
<line x1="247.300000" y1="36.000000" x2="247.300000" y2="36.000000"  style="stroke:black; stroke-linecap:round; stroke-width:0.25;"/>
<line x1="247.300000" y1="36.000000" x2="251.300000" y2="36.000000"  style="stroke:black; stroke-linecap:round; stroke-width:0.25;"/>
<line x1="290.000000" y1="36.000000" x2="294.000000" y2="36.000000"  style="stroke:black; stroke-linecap:round; stroke-width:0.25;"/>
<line x1="294.000000" y1="36.000000" x2="294.000000" y2="36.000000"  style="stroke:black; stroke-linecap:round; stroke-width:0.25;"/>
<line x1="294.000000" y1="36.000000" x2="298.000000" y2="36.000000"  style="stroke:black; stroke-linecap:round; stroke-width:0.25;"/>
<line x1="323.800000" y1="36.000000" x2="327.800000" y2="36.000000"  style="stroke:black; stroke-linecap:round; stroke-width:0.25;"/>
<line x1="327.800000" y1="36.000000" x2="331.800000" y2="36.000000"  style="stroke:black; stroke-linecap:round; stroke-width:0.25;"/>
<line x1="327.800000" y1="36.000000" x2="327.800000" y2="36.000000"  style="stroke:black; stroke-linecap:round; stroke-width:0.25;"/>
<line x1="331.800000" y1="36.000000" x2="335.800000" y2="36.000000"  style="stroke:black; stroke-linecap:round; stroke-width:0.25;"/>
<line x1="335.800000" y1="36.000000" x2="345.800000" y2="36.000000"  style="stroke:black; stroke-linecap:round; stroke-width:0.25;"/>
</svg>
