<?xml version="1.0"?>
<svg xmlns="http://www.w3.org/2000/svg" xmlns:xlink="http://www.w3.org/1999/xlink" viewBox="0 0 222.700000 120.000000" width="111.350000mm" height="60.000000mm" version="1.1">
<a xlink:href="process.svg">
<rect x="1.000000" y="1.000000" width="221.700000" height="119.000000" rx="0" ry="0" style="stroke:none;fill:#cccccc;"/>
<rect x="0.000000" y="0.000000" width="221.700000" height="119.000000" rx="0" ry="0" style="stroke:none;fill:#ffffff;"/>
</a>
<text x="10.000000" y="7.000000" font-family="Arial" font-size="7"></text>
<a xlink:href="g88-0x7fec3bc320d0.svg">
<rect x="61.000000" y="53.000000" width="24.000000" height="24.000000" rx="0" ry="0" style="stroke:none;fill:#cccccc;"/>
<rect x="60.000000" y="52.000000" width="24.000000" height="24.000000" rx="0" ry="0" style="stroke:none;fill:#003366;"/>
</a>
<a xlink:href="g88-0x7fec3bc320d0.svg">
<text x="72.000000" y="66.000000" font-family="Arial" font-size="7" text-anchor="middle" fill="#FFFFFF">g88</text>
</a>
<circle cx="62.000000" cy="54.000000" r="1"/>
<rect x="101.000000" y="49.000000" width="24.000000" height="24.000000" rx="0" ry="0" style="stroke:none;fill:#cccccc;"/>
<rect x="100.000000" y="48.000000" width="24.000000" height="24.000000" rx="0" ry="0" style="stroke:none;fill:#4B71A1;"/>
<text x="112.000000" y="62.000000" font-family="Arial" font-size="7" text-anchor="middle" fill="#FFFFFF">*</text>
<circle cx="102.000000" cy="50.000000" r="1"/>
<line x1="97.000000" y1="55.000000" x2="100.000000" y2="56.000000"  transform="rotate(0.000000,100.000000,56.000000)" style="stroke: black; stroke-width:0.25;"/>
<line x1="97.000000" y1="57.000000" x2="100.000000" y2="56.000000"  transform="rotate(0.000000,100.000000,56.000000)" style="stroke: black; stroke-width:0.25;"/>
<line x1="97.000000" y1="63.000000" x2="100.000000" y2="64.000000"  transform="rotate(0.000000,100.000000,64.000000)" style="stroke: black; stroke-width:0.25;"/>
<line x1="97.000000" y1="65.000000" x2="100.000000" y2="64.000000"  transform="rotate(0.000000,100.000000,64.000000)" style="stroke: black; stroke-width:0.25;"/>
<a xlink:href="pvmeter-0x7fec3bc44520.svg">
<rect x="133.000000" y="49.000000" width="38.700000" height="24.000000" rx="0" ry="0" style="stroke:none;fill:#cccccc;"/>
<rect x="132.000000" y="48.000000" width="38.700000" height="24.000000" rx="0" ry="0" style="stroke:none;fill:#003366;"/>
</a>
<a xlink:href="pvmeter-0x7fec3bc44520.svg">
<text x="151.350000" y="62.000000" font-family="Arial" font-size="7" text-anchor="middle" fill="#FFFFFF">pvmeter</text>
</a>
<circle cx="134.000000" cy="50.000000" r="1"/>
<line x1="129.000000" y1="59.000000" x2="132.000000" y2="60.000000"  transform="rotate(0.000000,132.000000,60.000000)" style="stroke: black; stroke-width:0.25;"/>
<line x1="129.000000" y1="61.000000" x2="132.000000" y2="60.000000"  transform="rotate(0.000000,132.000000,60.000000)" style="stroke: black; stroke-width:0.25;"/>
<line x1="51.000000" y1="35.000000" x2="51.000000" y2="85.000000"  style="stroke: black; stroke-linecap:round; stroke-width:0.25; stroke-dasharray:3,3;"/>
<line x1="51.000000" y1="85.000000" x2="179.700000" y2="85.000000"  style="stroke: black; stroke-linecap:round; stroke-width:0.25; stroke-dasharray:3,3;"/>
<line x1="179.700000" y1="85.000000" x2="179.700000" y2="35.000000"  style="stroke: black; stroke-linecap:round; stroke-width:0.25; stroke-dasharray:3,3;"/>
<line x1="51.000000" y1="35.000000" x2="56.000000" y2="35.000000"  style="stroke: black; stroke-linecap:round; stroke-width:0.25; stroke-dasharray:3,3;"/>
<line x1="88.250000" y1="35.000000" x2="179.700000" y2="35.000000"  style="stroke: black; stroke-linecap:round; stroke-width:0.25; stroke-dasharray:3,3;"/>
<text x="56.000000" y="37.000000" font-family="Arial" font-size="7">hgroup()</text>
<line x1="41.000000" y1="25.000000" x2="41.000000" y2="95.000000"  style="stroke: black; stroke-linecap:round; stroke-width:0.25; stroke-dasharray:3,3;"/>
<line x1="41.000000" y1="95.000000" x2="189.700000" y2="95.000000"  style="stroke: black; stroke-linecap:round; stroke-width:0.25; stroke-dasharray:3,3;"/>
<line x1="189.700000" y1="95.000000" x2="189.700000" y2="25.000000"  style="stroke: black; stroke-linecap:round; stroke-width:0.25; stroke-dasharray:3,3;"/>
<line x1="41.000000" y1="25.000000" x2="46.000000" y2="25.000000"  style="stroke: black; stroke-linecap:round; stroke-width:0.25; stroke-dasharray:3,3;"/>
<line x1="78.250000" y1="25.000000" x2="189.700000" y2="25.000000"  style="stroke: black; stroke-linecap:round; stroke-width:0.25; stroke-dasharray:3,3;"/>
<text x="46.000000" y="27.000000" font-family="Arial" font-size="7">hgroup()</text>
<line x1="15.000000" y1="15.000000" x2="15.000000" y2="105.000000"  style="stroke: black; stroke-linecap:round; stroke-width:0.25; stroke-dasharray:3,3;"/>
<line x1="15.000000" y1="105.000000" x2="207.700000" y2="105.000000"  style="stroke: black; stroke-linecap:round; stroke-width:0.25; stroke-dasharray:3,3;"/>
<line x1="207.700000" y1="105.000000" x2="207.700000" y2="15.000000"  style="stroke: black; stroke-linecap:round; stroke-width:0.25; stroke-dasharray:3,3;"/>
<line x1="15.000000" y1="15.000000" x2="20.000000" y2="15.000000"  style="stroke: black; stroke-linecap:round; stroke-width:0.25; stroke-dasharray:3,3;"/>
<line x1="45.800000" y1="15.000000" x2="207.700000" y2="15.000000"  style="stroke: black; stroke-linecap:round; stroke-width:0.25; stroke-dasharray:3,3;"/>
<text x="20.000000" y="17.000000" font-family="Arial" font-size="7">output</text>
<line x1="209.700000" y1="59.000000" x2="212.700000" y2="60.000000"  transform="rotate(0.000000,212.700000,60.000000)" style="stroke: black; stroke-width:0.25;"/>
<line x1="209.700000" y1="61.000000" x2="212.700000" y2="60.000000"  transform="rotate(0.000000,212.700000,60.000000)" style="stroke: black; stroke-width:0.25;"/>
<line x1="10.000000" y1="60.000000" x2="20.000000" y2="60.000000"  style="stroke:black; stroke-linecap:round; stroke-width:0.25;"/>
<line x1="20.000000" y1="60.000000" x2="24.000000" y2="60.000000"  style="stroke:black; stroke-linecap:round; stroke-width:0.25;"/>
<line x1="24.000000" y1="60.000000" x2="28.000000" y2="60.000000"  style="stroke:black; stroke-linecap:round; stroke-width:0.25;"/>
<line x1="28.000000" y1="44.000000" x2="36.000000" y2="44.000000"  style="stroke:black; stroke-linecap:round; stroke-width:0.25;"/>
<line x1="28.000000" y1="60.000000" x2="28.000000" y2="44.000000"  style="stroke:black; stroke-linecap:round; stroke-width:0.25;"/>
<line x1="28.000000" y1="60.000000" x2="28.000000" y2="60.000000"  style="stroke:black; stroke-linecap:round; stroke-width:0.25;"/>
<line x1="36.000000" y1="44.000000" x2="46.000000" y2="44.000000"  style="stroke:black; stroke-linecap:round; stroke-width:0.25;"/>
<line x1="46.000000" y1="44.000000" x2="56.000000" y2="44.000000"  style="stroke:black; stroke-linecap:round; stroke-width:0.25;"/>
<line x1="56.000000" y1="44.000000" x2="72.000000" y2="44.000000"  style="stroke:black; stroke-linecap:round; stroke-width:0.25;"/>
<line x1="72.000000" y1="44.000000" x2="88.000000" y2="44.000000"  style="stroke:black; stroke-linecap:round; stroke-width:0.25;"/>
<line x1="84.000000" y1="64.000000" x2="88.000000" y2="64.000000"  style="stroke:black; stroke-linecap:round; stroke-width:0.25;"/>
<line x1="88.000000" y1="44.000000" x2="96.000000" y2="44.000000"  style="stroke:black; stroke-linecap:round; stroke-width:0.25;"/>
<line x1="88.000000" y1="64.000000" x2="96.000000" y2="64.000000"  style="stroke:black; stroke-linecap:round; stroke-width:0.25;"/>
<line x1="96.000000" y1="44.000000" x2="96.000000" y2="56.000000"  style="stroke:black; stroke-linecap:round; stroke-width:0.25;"/>
<line x1="96.000000" y1="56.000000" x2="96.000000" y2="56.000000"  style="stroke:black; stroke-linecap:round; stroke-width:0.25;"/>
<line x1="96.000000" y1="56.000000" x2="100.000000" y2="56.000000"  style="stroke:black; stroke-linecap:round; stroke-width:0.25;"/>
<line x1="96.000000" y1="64.000000" x2="100.000000" y2="64.000000"  style="stroke:black; stroke-linecap:round; stroke-width:0.25;"/>
<line x1="124.000000" y1="60.000000" x2="128.000000" y2="60.000000"  style="stroke:black; stroke-linecap:round; stroke-width:0.25;"/>
<line x1="128.000000" y1="60.000000" x2="128.000000" y2="60.000000"  style="stroke:black; stroke-linecap:round; stroke-width:0.25;"/>
<line x1="128.000000" y1="60.000000" x2="132.000000" y2="60.000000"  style="stroke:black; stroke-linecap:round; stroke-width:0.25;"/>
<line x1="170.700000" y1="60.000000" x2="174.700000" y2="60.000000"  style="stroke:black; stroke-linecap:round; stroke-width:0.25;"/>
<line x1="174.700000" y1="60.000000" x2="184.700000" y2="60.000000"  style="stroke:black; stroke-linecap:round; stroke-width:0.25;"/>
<line x1="184.700000" y1="60.000000" x2="194.700000" y2="60.000000"  style="stroke:black; stroke-linecap:round; stroke-width:0.25;"/>
<line x1="194.700000" y1="60.000000" x2="194.700000" y2="60.000000"  style="stroke:black; stroke-linecap:round; stroke-width:0.25;"/>
<line x1="194.700000" y1="60.000000" x2="198.700000" y2="60.000000"  style="stroke:black; stroke-linecap:round; stroke-width:0.25;"/>
<line x1="198.700000" y1="60.000000" x2="202.700000" y2="60.000000"  style="stroke:black; stroke-linecap:round; stroke-width:0.25;"/>
<line x1="202.700000" y1="60.000000" x2="212.700000" y2="60.000000"  style="stroke:black; stroke-linecap:round; stroke-width:0.25;"/>
</svg>
