<?xml version="1.0"?>
<svg xmlns="http://www.w3.org/2000/svg" xmlns:xlink="http://www.w3.org/1999/xlink" viewBox="0 0 375.700000 344.000000" width="187.850000mm" height="172.000000mm" version="1.1">
<a xlink:href="lrstrip-0x7fee602bc670.svg">
<rect x="1.000000" y="1.000000" width="374.700000" height="343.000000" rx="0" ry="0" style="stroke:none;fill:#cccccc;"/>
<rect x="0.000000" y="0.000000" width="374.700000" height="343.000000" rx="0" ry="0" style="stroke:none;fill:#ffffff;"/>
</a>
<text x="10.000000" y="7.000000" font-family="Arial" font-size="7"></text>
<a xlink:href="selectn-0x7fee6026c940.svg">
<rect x="153.000000" y="25.000000" width="129.000000" height="144.000000" rx="0" ry="0" style="stroke:none;fill:#cccccc;"/>
<rect x="152.000000" y="24.000000" width="129.000000" height="144.000000" rx="0" ry="0" style="stroke:none;fill:#003366;"/>
</a>
<a xlink:href="selectn-0x7fee6026c940.svg">
<text x="216.500000" y="98.000000" font-family="Arial" font-size="7" text-anchor="middle" fill="#FFFFFF">selectn(18)(n... 1.0f) : int)</text>
</a>
<circle cx="154.000000" cy="26.000000" r="1"/>
<line x1="149.000000" y1="27.000000" x2="152.000000" y2="28.000000"  transform="rotate(0.000000,152.000000,28.000000)" style="stroke: black; stroke-width:0.25;"/>
<line x1="149.000000" y1="29.000000" x2="152.000000" y2="28.000000"  transform="rotate(0.000000,152.000000,28.000000)" style="stroke: black; stroke-width:0.25;"/>
<line x1="149.000000" y1="35.000000" x2="152.000000" y2="36.000000"  transform="rotate(0.000000,152.000000,36.000000)" style="stroke: black; stroke-width:0.25;"/>
<line x1="149.000000" y1="37.000000" x2="152.000000" y2="36.000000"  transform="rotate(0.000000,152.000000,36.000000)" style="stroke: black; stroke-width:0.25;"/>
<line x1="149.000000" y1="43.000000" x2="152.000000" y2="44.000000"  transform="rotate(0.000000,152.000000,44.000000)" style="stroke: black; stroke-width:0.25;"/>
<line x1="149.000000" y1="45.000000" x2="152.000000" y2="44.000000"  transform="rotate(0.000000,152.000000,44.000000)" style="stroke: black; stroke-width:0.25;"/>
<line x1="149.000000" y1="51.000000" x2="152.000000" y2="52.000000"  transform="rotate(0.000000,152.000000,52.000000)" style="stroke: black; stroke-width:0.25;"/>
<line x1="149.000000" y1="53.000000" x2="152.000000" y2="52.000000"  transform="rotate(0.000000,152.000000,52.000000)" style="stroke: black; stroke-width:0.25;"/>
<line x1="149.000000" y1="59.000000" x2="152.000000" y2="60.000000"  transform="rotate(0.000000,152.000000,60.000000)" style="stroke: black; stroke-width:0.25;"/>
<line x1="149.000000" y1="61.000000" x2="152.000000" y2="60.000000"  transform="rotate(0.000000,152.000000,60.000000)" style="stroke: black; stroke-width:0.25;"/>
<line x1="149.000000" y1="67.000000" x2="152.000000" y2="68.000000"  transform="rotate(0.000000,152.000000,68.000000)" style="stroke: black; stroke-width:0.25;"/>
<line x1="149.000000" y1="69.000000" x2="152.000000" y2="68.000000"  transform="rotate(0.000000,152.000000,68.000000)" style="stroke: black; stroke-width:0.25;"/>
<line x1="149.000000" y1="75.000000" x2="152.000000" y2="76.000000"  transform="rotate(0.000000,152.000000,76.000000)" style="stroke: black; stroke-width:0.25;"/>
<line x1="149.000000" y1="77.000000" x2="152.000000" y2="76.000000"  transform="rotate(0.000000,152.000000,76.000000)" style="stroke: black; stroke-width:0.25;"/>
<line x1="149.000000" y1="83.000000" x2="152.000000" y2="84.000000"  transform="rotate(0.000000,152.000000,84.000000)" style="stroke: black; stroke-width:0.25;"/>
<line x1="149.000000" y1="85.000000" x2="152.000000" y2="84.000000"  transform="rotate(0.000000,152.000000,84.000000)" style="stroke: black; stroke-width:0.25;"/>
<line x1="149.000000" y1="91.000000" x2="152.000000" y2="92.000000"  transform="rotate(0.000000,152.000000,92.000000)" style="stroke: black; stroke-width:0.25;"/>
<line x1="149.000000" y1="93.000000" x2="152.000000" y2="92.000000"  transform="rotate(0.000000,152.000000,92.000000)" style="stroke: black; stroke-width:0.25;"/>
<line x1="149.000000" y1="99.000000" x2="152.000000" y2="100.000000"  transform="rotate(0.000000,152.000000,100.000000)" style="stroke: black; stroke-width:0.25;"/>
<line x1="149.000000" y1="101.000000" x2="152.000000" y2="100.000000"  transform="rotate(0.000000,152.000000,100.000000)" style="stroke: black; stroke-width:0.25;"/>
<line x1="149.000000" y1="107.000000" x2="152.000000" y2="108.000000"  transform="rotate(0.000000,152.000000,108.000000)" style="stroke: black; stroke-width:0.25;"/>
<line x1="149.000000" y1="109.000000" x2="152.000000" y2="108.000000"  transform="rotate(0.000000,152.000000,108.000000)" style="stroke: black; stroke-width:0.25;"/>
<line x1="149.000000" y1="115.000000" x2="152.000000" y2="116.000000"  transform="rotate(0.000000,152.000000,116.000000)" style="stroke: black; stroke-width:0.25;"/>
<line x1="149.000000" y1="117.000000" x2="152.000000" y2="116.000000"  transform="rotate(0.000000,152.000000,116.000000)" style="stroke: black; stroke-width:0.25;"/>
<line x1="149.000000" y1="123.000000" x2="152.000000" y2="124.000000"  transform="rotate(0.000000,152.000000,124.000000)" style="stroke: black; stroke-width:0.25;"/>
<line x1="149.000000" y1="125.000000" x2="152.000000" y2="124.000000"  transform="rotate(0.000000,152.000000,124.000000)" style="stroke: black; stroke-width:0.25;"/>
<line x1="149.000000" y1="131.000000" x2="152.000000" y2="132.000000"  transform="rotate(0.000000,152.000000,132.000000)" style="stroke: black; stroke-width:0.25;"/>
<line x1="149.000000" y1="133.000000" x2="152.000000" y2="132.000000"  transform="rotate(0.000000,152.000000,132.000000)" style="stroke: black; stroke-width:0.25;"/>
<line x1="149.000000" y1="139.000000" x2="152.000000" y2="140.000000"  transform="rotate(0.000000,152.000000,140.000000)" style="stroke: black; stroke-width:0.25;"/>
<line x1="149.000000" y1="141.000000" x2="152.000000" y2="140.000000"  transform="rotate(0.000000,152.000000,140.000000)" style="stroke: black; stroke-width:0.25;"/>
<line x1="149.000000" y1="147.000000" x2="152.000000" y2="148.000000"  transform="rotate(0.000000,152.000000,148.000000)" style="stroke: black; stroke-width:0.25;"/>
<line x1="149.000000" y1="149.000000" x2="152.000000" y2="148.000000"  transform="rotate(0.000000,152.000000,148.000000)" style="stroke: black; stroke-width:0.25;"/>
<line x1="149.000000" y1="155.000000" x2="152.000000" y2="156.000000"  transform="rotate(0.000000,152.000000,156.000000)" style="stroke: black; stroke-width:0.25;"/>
<line x1="149.000000" y1="157.000000" x2="152.000000" y2="156.000000"  transform="rotate(0.000000,152.000000,156.000000)" style="stroke: black; stroke-width:0.25;"/>
<line x1="149.000000" y1="163.000000" x2="152.000000" y2="164.000000"  transform="rotate(0.000000,152.000000,164.000000)" style="stroke: black; stroke-width:0.25;"/>
<line x1="149.000000" y1="165.000000" x2="152.000000" y2="164.000000"  transform="rotate(0.000000,152.000000,164.000000)" style="stroke: black; stroke-width:0.25;"/>
<a xlink:href="selectn-0x7fee602aa350.svg">
<rect x="153.000000" y="177.000000" width="129.000000" height="144.000000" rx="0" ry="0" style="stroke:none;fill:#cccccc;"/>
<rect x="152.000000" y="176.000000" width="129.000000" height="144.000000" rx="0" ry="0" style="stroke:none;fill:#003366;"/>
</a>
<a xlink:href="selectn-0x7fee602aa350.svg">
<text x="216.500000" y="250.000000" font-family="Arial" font-size="7" text-anchor="middle" fill="#FFFFFF">selectn(18)((...: int),1 : +)</text>
</a>
<circle cx="154.000000" cy="178.000000" r="1"/>
<line x1="149.000000" y1="179.000000" x2="152.000000" y2="180.000000"  transform="rotate(0.000000,152.000000,180.000000)" style="stroke: black; stroke-width:0.25;"/>
<line x1="149.000000" y1="181.000000" x2="152.000000" y2="180.000000"  transform="rotate(0.000000,152.000000,180.000000)" style="stroke: black; stroke-width:0.25;"/>
<line x1="149.000000" y1="187.000000" x2="152.000000" y2="188.000000"  transform="rotate(0.000000,152.000000,188.000000)" style="stroke: black; stroke-width:0.25;"/>
<line x1="149.000000" y1="189.000000" x2="152.000000" y2="188.000000"  transform="rotate(0.000000,152.000000,188.000000)" style="stroke: black; stroke-width:0.25;"/>
<line x1="149.000000" y1="195.000000" x2="152.000000" y2="196.000000"  transform="rotate(0.000000,152.000000,196.000000)" style="stroke: black; stroke-width:0.25;"/>
<line x1="149.000000" y1="197.000000" x2="152.000000" y2="196.000000"  transform="rotate(0.000000,152.000000,196.000000)" style="stroke: black; stroke-width:0.25;"/>
<line x1="149.000000" y1="203.000000" x2="152.000000" y2="204.000000"  transform="rotate(0.000000,152.000000,204.000000)" style="stroke: black; stroke-width:0.25;"/>
<line x1="149.000000" y1="205.000000" x2="152.000000" y2="204.000000"  transform="rotate(0.000000,152.000000,204.000000)" style="stroke: black; stroke-width:0.25;"/>
<line x1="149.000000" y1="211.000000" x2="152.000000" y2="212.000000"  transform="rotate(0.000000,152.000000,212.000000)" style="stroke: black; stroke-width:0.25;"/>
<line x1="149.000000" y1="213.000000" x2="152.000000" y2="212.000000"  transform="rotate(0.000000,152.000000,212.000000)" style="stroke: black; stroke-width:0.25;"/>
<line x1="149.000000" y1="219.000000" x2="152.000000" y2="220.000000"  transform="rotate(0.000000,152.000000,220.000000)" style="stroke: black; stroke-width:0.25;"/>
<line x1="149.000000" y1="221.000000" x2="152.000000" y2="220.000000"  transform="rotate(0.000000,152.000000,220.000000)" style="stroke: black; stroke-width:0.25;"/>
<line x1="149.000000" y1="227.000000" x2="152.000000" y2="228.000000"  transform="rotate(0.000000,152.000000,228.000000)" style="stroke: black; stroke-width:0.25;"/>
<line x1="149.000000" y1="229.000000" x2="152.000000" y2="228.000000"  transform="rotate(0.000000,152.000000,228.000000)" style="stroke: black; stroke-width:0.25;"/>
<line x1="149.000000" y1="235.000000" x2="152.000000" y2="236.000000"  transform="rotate(0.000000,152.000000,236.000000)" style="stroke: black; stroke-width:0.25;"/>
<line x1="149.000000" y1="237.000000" x2="152.000000" y2="236.000000"  transform="rotate(0.000000,152.000000,236.000000)" style="stroke: black; stroke-width:0.25;"/>
<line x1="149.000000" y1="243.000000" x2="152.000000" y2="244.000000"  transform="rotate(0.000000,152.000000,244.000000)" style="stroke: black; stroke-width:0.25;"/>
<line x1="149.000000" y1="245.000000" x2="152.000000" y2="244.000000"  transform="rotate(0.000000,152.000000,244.000000)" style="stroke: black; stroke-width:0.25;"/>
<line x1="149.000000" y1="251.000000" x2="152.000000" y2="252.000000"  transform="rotate(0.000000,152.000000,252.000000)" style="stroke: black; stroke-width:0.25;"/>
<line x1="149.000000" y1="253.000000" x2="152.000000" y2="252.000000"  transform="rotate(0.000000,152.000000,252.000000)" style="stroke: black; stroke-width:0.25;"/>
<line x1="149.000000" y1="259.000000" x2="152.000000" y2="260.000000"  transform="rotate(0.000000,152.000000,260.000000)" style="stroke: black; stroke-width:0.25;"/>
<line x1="149.000000" y1="261.000000" x2="152.000000" y2="260.000000"  transform="rotate(0.000000,152.000000,260.000000)" style="stroke: black; stroke-width:0.25;"/>
<line x1="149.000000" y1="267.000000" x2="152.000000" y2="268.000000"  transform="rotate(0.000000,152.000000,268.000000)" style="stroke: black; stroke-width:0.25;"/>
<line x1="149.000000" y1="269.000000" x2="152.000000" y2="268.000000"  transform="rotate(0.000000,152.000000,268.000000)" style="stroke: black; stroke-width:0.25;"/>
<line x1="149.000000" y1="275.000000" x2="152.000000" y2="276.000000"  transform="rotate(0.000000,152.000000,276.000000)" style="stroke: black; stroke-width:0.25;"/>
<line x1="149.000000" y1="277.000000" x2="152.000000" y2="276.000000"  transform="rotate(0.000000,152.000000,276.000000)" style="stroke: black; stroke-width:0.25;"/>
<line x1="149.000000" y1="283.000000" x2="152.000000" y2="284.000000"  transform="rotate(0.000000,152.000000,284.000000)" style="stroke: black; stroke-width:0.25;"/>
<line x1="149.000000" y1="285.000000" x2="152.000000" y2="284.000000"  transform="rotate(0.000000,152.000000,284.000000)" style="stroke: black; stroke-width:0.25;"/>
<line x1="149.000000" y1="291.000000" x2="152.000000" y2="292.000000"  transform="rotate(0.000000,152.000000,292.000000)" style="stroke: black; stroke-width:0.25;"/>
<line x1="149.000000" y1="293.000000" x2="152.000000" y2="292.000000"  transform="rotate(0.000000,152.000000,292.000000)" style="stroke: black; stroke-width:0.25;"/>
<line x1="149.000000" y1="299.000000" x2="152.000000" y2="300.000000"  transform="rotate(0.000000,152.000000,300.000000)" style="stroke: black; stroke-width:0.25;"/>
<line x1="149.000000" y1="301.000000" x2="152.000000" y2="300.000000"  transform="rotate(0.000000,152.000000,300.000000)" style="stroke: black; stroke-width:0.25;"/>
<line x1="149.000000" y1="307.000000" x2="152.000000" y2="308.000000"  transform="rotate(0.000000,152.000000,308.000000)" style="stroke: black; stroke-width:0.25;"/>
<line x1="149.000000" y1="309.000000" x2="152.000000" y2="308.000000"  transform="rotate(0.000000,152.000000,308.000000)" style="stroke: black; stroke-width:0.25;"/>
<line x1="149.000000" y1="315.000000" x2="152.000000" y2="316.000000"  transform="rotate(0.000000,152.000000,316.000000)" style="stroke: black; stroke-width:0.25;"/>
<line x1="149.000000" y1="317.000000" x2="152.000000" y2="316.000000"  transform="rotate(0.000000,152.000000,316.000000)" style="stroke: black; stroke-width:0.25;"/>
<a xlink:href="shmeter-0x7fee602b1f60.svg">
<rect x="298.000000" y="145.000000" width="38.700000" height="24.000000" rx="0" ry="0" style="stroke:none;fill:#cccccc;"/>
<rect x="297.000000" y="144.000000" width="38.700000" height="24.000000" rx="0" ry="0" style="stroke:none;fill:#003366;"/>
</a>
<a xlink:href="shmeter-0x7fee602b1f60.svg">
<text x="316.350000" y="158.000000" font-family="Arial" font-size="7" text-anchor="middle" fill="#FFFFFF">shmeter</text>
</a>
<circle cx="299.000000" cy="146.000000" r="1"/>
<line x1="294.000000" y1="155.000000" x2="297.000000" y2="156.000000"  transform="rotate(0.000000,297.000000,156.000000)" style="stroke: black; stroke-width:0.25;"/>
<line x1="294.000000" y1="157.000000" x2="297.000000" y2="156.000000"  transform="rotate(0.000000,297.000000,156.000000)" style="stroke: black; stroke-width:0.25;"/>
<a xlink:href="shmeter-0x7fee602b1f60.svg">
<rect x="298.000000" y="177.000000" width="38.700000" height="24.000000" rx="0" ry="0" style="stroke:none;fill:#cccccc;"/>
<rect x="297.000000" y="176.000000" width="38.700000" height="24.000000" rx="0" ry="0" style="stroke:none;fill:#003366;"/>
</a>
<a xlink:href="shmeter-0x7fee602b1f60.svg">
<text x="316.350000" y="190.000000" font-family="Arial" font-size="7" text-anchor="middle" fill="#FFFFFF">shmeter</text>
</a>
<circle cx="299.000000" cy="178.000000" r="1"/>
<line x1="294.000000" y1="187.000000" x2="297.000000" y2="188.000000"  transform="rotate(0.000000,297.000000,188.000000)" style="stroke: black; stroke-width:0.25;"/>
<line x1="294.000000" y1="189.000000" x2="297.000000" y2="188.000000"  transform="rotate(0.000000,297.000000,188.000000)" style="stroke: black; stroke-width:0.25;"/>
<line x1="15.000000" y1="15.000000" x2="15.000000" y2="329.000000"  style="stroke: black; stroke-linecap:round; stroke-width:0.25; stroke-dasharray:3,3;"/>
<line x1="15.000000" y1="329.000000" x2="360.700000" y2="329.000000"  style="stroke: black; stroke-linecap:round; stroke-width:0.25; stroke-dasharray:3,3;"/>
<line x1="360.700000" y1="329.000000" x2="360.700000" y2="15.000000"  style="stroke: black; stroke-linecap:round; stroke-width:0.25; stroke-dasharray:3,3;"/>
<line x1="15.000000" y1="15.000000" x2="20.000000" y2="15.000000"  style="stroke: black; stroke-linecap:round; stroke-width:0.25; stroke-dasharray:3,3;"/>
<line x1="52.250000" y1="15.000000" x2="360.700000" y2="15.000000"  style="stroke: black; stroke-linecap:round; stroke-width:0.25; stroke-dasharray:3,3;"/>
<text x="20.000000" y="17.000000" font-family="Arial" font-size="7">ff800_ST</text>
<line x1="362.700000" y1="167.000000" x2="365.700000" y2="168.000000"  transform="rotate(0.000000,365.700000,168.000000)" style="stroke: black; stroke-width:0.25;"/>
<line x1="362.700000" y1="169.000000" x2="365.700000" y2="168.000000"  transform="rotate(0.000000,365.700000,168.000000)" style="stroke: black; stroke-width:0.25;"/>
<line x1="362.700000" y1="175.000000" x2="365.700000" y2="176.000000"  transform="rotate(0.000000,365.700000,176.000000)" style="stroke: black; stroke-width:0.25;"/>
<line x1="362.700000" y1="177.000000" x2="365.700000" y2="176.000000"  transform="rotate(0.000000,365.700000,176.000000)" style="stroke: black; stroke-width:0.25;"/>
<line x1="10.000000" y1="104.000000" x2="20.000000" y2="104.000000"  style="stroke:black; stroke-linecap:round; stroke-width:0.25;"/>
<line x1="10.000000" y1="112.000000" x2="20.000000" y2="112.000000"  style="stroke:black; stroke-linecap:round; stroke-width:0.25;"/>
<line x1="10.000000" y1="120.000000" x2="20.000000" y2="120.000000"  style="stroke:black; stroke-linecap:round; stroke-width:0.25;"/>
<line x1="10.000000" y1="128.000000" x2="20.000000" y2="128.000000"  style="stroke:black; stroke-linecap:round; stroke-width:0.25;"/>
<line x1="10.000000" y1="136.000000" x2="20.000000" y2="136.000000"  style="stroke:black; stroke-linecap:round; stroke-width:0.25;"/>
<line x1="10.000000" y1="144.000000" x2="20.000000" y2="144.000000"  style="stroke:black; stroke-linecap:round; stroke-width:0.25;"/>
<line x1="10.000000" y1="152.000000" x2="20.000000" y2="152.000000"  style="stroke:black; stroke-linecap:round; stroke-width:0.25;"/>
<line x1="10.000000" y1="160.000000" x2="20.000000" y2="160.000000"  style="stroke:black; stroke-linecap:round; stroke-width:0.25;"/>
<line x1="10.000000" y1="168.000000" x2="20.000000" y2="168.000000"  style="stroke:black; stroke-linecap:round; stroke-width:0.25;"/>
<line x1="10.000000" y1="176.000000" x2="20.000000" y2="176.000000"  style="stroke:black; stroke-linecap:round; stroke-width:0.25;"/>
<line x1="10.000000" y1="184.000000" x2="20.000000" y2="184.000000"  style="stroke:black; stroke-linecap:round; stroke-width:0.25;"/>
<line x1="10.000000" y1="192.000000" x2="20.000000" y2="192.000000"  style="stroke:black; stroke-linecap:round; stroke-width:0.25;"/>
<line x1="10.000000" y1="200.000000" x2="20.000000" y2="200.000000"  style="stroke:black; stroke-linecap:round; stroke-width:0.25;"/>
<line x1="10.000000" y1="208.000000" x2="20.000000" y2="208.000000"  style="stroke:black; stroke-linecap:round; stroke-width:0.25;"/>
<line x1="10.000000" y1="216.000000" x2="20.000000" y2="216.000000"  style="stroke:black; stroke-linecap:round; stroke-width:0.25;"/>
<line x1="10.000000" y1="224.000000" x2="20.000000" y2="224.000000"  style="stroke:black; stroke-linecap:round; stroke-width:0.25;"/>
<line x1="10.000000" y1="232.000000" x2="20.000000" y2="232.000000"  style="stroke:black; stroke-linecap:round; stroke-width:0.25;"/>
<line x1="10.000000" y1="240.000000" x2="20.000000" y2="240.000000"  style="stroke:black; stroke-linecap:round; stroke-width:0.25;"/>
<line x1="20.000000" y1="104.000000" x2="24.000000" y2="104.000000"  style="stroke:black; stroke-linecap:round; stroke-width:0.25;"/>
<line x1="20.000000" y1="112.000000" x2="24.000000" y2="112.000000"  style="stroke:black; stroke-linecap:round; stroke-width:0.25;"/>
<line x1="20.000000" y1="120.000000" x2="24.000000" y2="120.000000"  style="stroke:black; stroke-linecap:round; stroke-width:0.25;"/>
<line x1="20.000000" y1="128.000000" x2="24.000000" y2="128.000000"  style="stroke:black; stroke-linecap:round; stroke-width:0.25;"/>
<line x1="20.000000" y1="136.000000" x2="24.000000" y2="136.000000"  style="stroke:black; stroke-linecap:round; stroke-width:0.25;"/>
<line x1="20.000000" y1="144.000000" x2="24.000000" y2="144.000000"  style="stroke:black; stroke-linecap:round; stroke-width:0.25;"/>
<line x1="20.000000" y1="152.000000" x2="24.000000" y2="152.000000"  style="stroke:black; stroke-linecap:round; stroke-width:0.25;"/>
<line x1="20.000000" y1="160.000000" x2="24.000000" y2="160.000000"  style="stroke:black; stroke-linecap:round; stroke-width:0.25;"/>
<line x1="20.000000" y1="168.000000" x2="24.000000" y2="168.000000"  style="stroke:black; stroke-linecap:round; stroke-width:0.25;"/>
<line x1="20.000000" y1="176.000000" x2="24.000000" y2="176.000000"  style="stroke:black; stroke-linecap:round; stroke-width:0.25;"/>
<line x1="20.000000" y1="184.000000" x2="24.000000" y2="184.000000"  style="stroke:black; stroke-linecap:round; stroke-width:0.25;"/>
<line x1="20.000000" y1="192.000000" x2="24.000000" y2="192.000000"  style="stroke:black; stroke-linecap:round; stroke-width:0.25;"/>
<line x1="20.000000" y1="200.000000" x2="24.000000" y2="200.000000"  style="stroke:black; stroke-linecap:round; stroke-width:0.25;"/>
<line x1="20.000000" y1="208.000000" x2="24.000000" y2="208.000000"  style="stroke:black; stroke-linecap:round; stroke-width:0.25;"/>
<line x1="20.000000" y1="216.000000" x2="24.000000" y2="216.000000"  style="stroke:black; stroke-linecap:round; stroke-width:0.25;"/>
<line x1="20.000000" y1="224.000000" x2="24.000000" y2="224.000000"  style="stroke:black; stroke-linecap:round; stroke-width:0.25;"/>
<line x1="20.000000" y1="232.000000" x2="24.000000" y2="232.000000"  style="stroke:black; stroke-linecap:round; stroke-width:0.25;"/>
<line x1="20.000000" y1="240.000000" x2="24.000000" y2="240.000000"  style="stroke:black; stroke-linecap:round; stroke-width:0.25;"/>
<line x1="24.000000" y1="104.000000" x2="28.000000" y2="104.000000"  style="stroke:black; stroke-linecap:round; stroke-width:0.25;"/>
<line x1="24.000000" y1="112.000000" x2="28.000000" y2="112.000000"  style="stroke:black; stroke-linecap:round; stroke-width:0.25;"/>
<line x1="24.000000" y1="120.000000" x2="28.000000" y2="120.000000"  style="stroke:black; stroke-linecap:round; stroke-width:0.25;"/>
<line x1="24.000000" y1="128.000000" x2="28.000000" y2="128.000000"  style="stroke:black; stroke-linecap:round; stroke-width:0.25;"/>
<line x1="24.000000" y1="136.000000" x2="28.000000" y2="136.000000"  style="stroke:black; stroke-linecap:round; stroke-width:0.25;"/>
<line x1="24.000000" y1="144.000000" x2="28.000000" y2="144.000000"  style="stroke:black; stroke-linecap:round; stroke-width:0.25;"/>
<line x1="24.000000" y1="152.000000" x2="28.000000" y2="152.000000"  style="stroke:black; stroke-linecap:round; stroke-width:0.25;"/>
<line x1="24.000000" y1="160.000000" x2="28.000000" y2="160.000000"  style="stroke:black; stroke-linecap:round; stroke-width:0.25;"/>
<line x1="24.000000" y1="168.000000" x2="28.000000" y2="168.000000"  style="stroke:black; stroke-linecap:round; stroke-width:0.25;"/>
<line x1="24.000000" y1="176.000000" x2="28.000000" y2="176.000000"  style="stroke:black; stroke-linecap:round; stroke-width:0.25;"/>
<line x1="24.000000" y1="184.000000" x2="28.000000" y2="184.000000"  style="stroke:black; stroke-linecap:round; stroke-width:0.25;"/>
<line x1="24.000000" y1="192.000000" x2="28.000000" y2="192.000000"  style="stroke:black; stroke-linecap:round; stroke-width:0.25;"/>
<line x1="24.000000" y1="200.000000" x2="28.000000" y2="200.000000"  style="stroke:black; stroke-linecap:round; stroke-width:0.25;"/>
<line x1="24.000000" y1="208.000000" x2="28.000000" y2="208.000000"  style="stroke:black; stroke-linecap:round; stroke-width:0.25;"/>
<line x1="24.000000" y1="216.000000" x2="28.000000" y2="216.000000"  style="stroke:black; stroke-linecap:round; stroke-width:0.25;"/>
<line x1="24.000000" y1="224.000000" x2="28.000000" y2="224.000000"  style="stroke:black; stroke-linecap:round; stroke-width:0.25;"/>
<line x1="24.000000" y1="232.000000" x2="28.000000" y2="232.000000"  style="stroke:black; stroke-linecap:round; stroke-width:0.25;"/>
<line x1="24.000000" y1="240.000000" x2="28.000000" y2="240.000000"  style="stroke:black; stroke-linecap:round; stroke-width:0.25;"/>
<line x1="28.000000" y1="104.000000" x2="28.000000" y2="104.000000"  style="stroke:black; stroke-linecap:round; stroke-width:0.25;"/>
<line x1="28.000000" y1="104.000000" x2="32.000000" y2="104.000000"  style="stroke:black; stroke-linecap:round; stroke-width:0.25;"/>
<line x1="28.000000" y1="112.000000" x2="28.000000" y2="112.000000"  style="stroke:black; stroke-linecap:round; stroke-width:0.25;"/>
<line x1="28.000000" y1="112.000000" x2="32.000000" y2="112.000000"  style="stroke:black; stroke-linecap:round; stroke-width:0.25;"/>
<line x1="28.000000" y1="120.000000" x2="28.000000" y2="120.000000"  style="stroke:black; stroke-linecap:round; stroke-width:0.25;"/>
<line x1="28.000000" y1="120.000000" x2="32.000000" y2="120.000000"  style="stroke:black; stroke-linecap:round; stroke-width:0.25;"/>
<line x1="28.000000" y1="128.000000" x2="28.000000" y2="128.000000"  style="stroke:black; stroke-linecap:round; stroke-width:0.25;"/>
<line x1="28.000000" y1="128.000000" x2="32.000000" y2="128.000000"  style="stroke:black; stroke-linecap:round; stroke-width:0.25;"/>
<line x1="28.000000" y1="136.000000" x2="28.000000" y2="136.000000"  style="stroke:black; stroke-linecap:round; stroke-width:0.25;"/>
<line x1="28.000000" y1="136.000000" x2="32.000000" y2="136.000000"  style="stroke:black; stroke-linecap:round; stroke-width:0.25;"/>
<line x1="28.000000" y1="144.000000" x2="28.000000" y2="144.000000"  style="stroke:black; stroke-linecap:round; stroke-width:0.25;"/>
<line x1="28.000000" y1="144.000000" x2="32.000000" y2="144.000000"  style="stroke:black; stroke-linecap:round; stroke-width:0.25;"/>
<line x1="28.000000" y1="152.000000" x2="28.000000" y2="152.000000"  style="stroke:black; stroke-linecap:round; stroke-width:0.25;"/>
<line x1="28.000000" y1="152.000000" x2="32.000000" y2="152.000000"  style="stroke:black; stroke-linecap:round; stroke-width:0.25;"/>
<line x1="28.000000" y1="160.000000" x2="28.000000" y2="160.000000"  style="stroke:black; stroke-linecap:round; stroke-width:0.25;"/>
<line x1="28.000000" y1="160.000000" x2="32.000000" y2="160.000000"  style="stroke:black; stroke-linecap:round; stroke-width:0.25;"/>
<line x1="28.000000" y1="168.000000" x2="28.000000" y2="168.000000"  style="stroke:black; stroke-linecap:round; stroke-width:0.25;"/>
<line x1="28.000000" y1="168.000000" x2="32.000000" y2="168.000000"  style="stroke:black; stroke-linecap:round; stroke-width:0.25;"/>
<line x1="28.000000" y1="176.000000" x2="28.000000" y2="176.000000"  style="stroke:black; stroke-linecap:round; stroke-width:0.25;"/>
<line x1="28.000000" y1="176.000000" x2="32.000000" y2="176.000000"  style="stroke:black; stroke-linecap:round; stroke-width:0.25;"/>
<line x1="28.000000" y1="184.000000" x2="28.000000" y2="184.000000"  style="stroke:black; stroke-linecap:round; stroke-width:0.25;"/>
<line x1="28.000000" y1="184.000000" x2="32.000000" y2="184.000000"  style="stroke:black; stroke-linecap:round; stroke-width:0.25;"/>
<line x1="28.000000" y1="192.000000" x2="28.000000" y2="192.000000"  style="stroke:black; stroke-linecap:round; stroke-width:0.25;"/>
<line x1="28.000000" y1="192.000000" x2="32.000000" y2="192.000000"  style="stroke:black; stroke-linecap:round; stroke-width:0.25;"/>
<line x1="28.000000" y1="200.000000" x2="28.000000" y2="200.000000"  style="stroke:black; stroke-linecap:round; stroke-width:0.25;"/>
<line x1="28.000000" y1="200.000000" x2="32.000000" y2="200.000000"  style="stroke:black; stroke-linecap:round; stroke-width:0.25;"/>
<line x1="28.000000" y1="208.000000" x2="28.000000" y2="208.000000"  style="stroke:black; stroke-linecap:round; stroke-width:0.25;"/>
<line x1="28.000000" y1="208.000000" x2="32.000000" y2="208.000000"  style="stroke:black; stroke-linecap:round; stroke-width:0.25;"/>
<line x1="28.000000" y1="216.000000" x2="28.000000" y2="216.000000"  style="stroke:black; stroke-linecap:round; stroke-width:0.25;"/>
<line x1="28.000000" y1="216.000000" x2="32.000000" y2="216.000000"  style="stroke:black; stroke-linecap:round; stroke-width:0.25;"/>
<line x1="28.000000" y1="224.000000" x2="28.000000" y2="224.000000"  style="stroke:black; stroke-linecap:round; stroke-width:0.25;"/>
<line x1="28.000000" y1="224.000000" x2="32.000000" y2="224.000000"  style="stroke:black; stroke-linecap:round; stroke-width:0.25;"/>
<line x1="28.000000" y1="232.000000" x2="28.000000" y2="232.000000"  style="stroke:black; stroke-linecap:round; stroke-width:0.25;"/>
<line x1="28.000000" y1="232.000000" x2="32.000000" y2="232.000000"  style="stroke:black; stroke-linecap:round; stroke-width:0.25;"/>
<line x1="28.000000" y1="240.000000" x2="28.000000" y2="240.000000"  style="stroke:black; stroke-linecap:round; stroke-width:0.25;"/>
<line x1="28.000000" y1="240.000000" x2="32.000000" y2="240.000000"  style="stroke:black; stroke-linecap:round; stroke-width:0.25;"/>
<line x1="32.000000" y1="104.000000" x2="36.000000" y2="104.000000"  style="stroke:black; stroke-linecap:round; stroke-width:0.25;"/>
<line x1="32.000000" y1="112.000000" x2="36.000000" y2="112.000000"  style="stroke:black; stroke-linecap:round; stroke-width:0.25;"/>
<line x1="32.000000" y1="120.000000" x2="36.000000" y2="120.000000"  style="stroke:black; stroke-linecap:round; stroke-width:0.25;"/>
<line x1="32.000000" y1="128.000000" x2="36.000000" y2="128.000000"  style="stroke:black; stroke-linecap:round; stroke-width:0.25;"/>
<line x1="32.000000" y1="136.000000" x2="36.000000" y2="136.000000"  style="stroke:black; stroke-linecap:round; stroke-width:0.25;"/>
<line x1="32.000000" y1="144.000000" x2="36.000000" y2="144.000000"  style="stroke:black; stroke-linecap:round; stroke-width:0.25;"/>
<line x1="32.000000" y1="152.000000" x2="36.000000" y2="152.000000"  style="stroke:black; stroke-linecap:round; stroke-width:0.25;"/>
<line x1="32.000000" y1="160.000000" x2="36.000000" y2="160.000000"  style="stroke:black; stroke-linecap:round; stroke-width:0.25;"/>
<line x1="32.000000" y1="168.000000" x2="36.000000" y2="168.000000"  style="stroke:black; stroke-linecap:round; stroke-width:0.25;"/>
<line x1="32.000000" y1="176.000000" x2="36.000000" y2="176.000000"  style="stroke:black; stroke-linecap:round; stroke-width:0.25;"/>
<line x1="32.000000" y1="184.000000" x2="36.000000" y2="184.000000"  style="stroke:black; stroke-linecap:round; stroke-width:0.25;"/>
<line x1="32.000000" y1="192.000000" x2="36.000000" y2="192.000000"  style="stroke:black; stroke-linecap:round; stroke-width:0.25;"/>
<line x1="32.000000" y1="200.000000" x2="36.000000" y2="200.000000"  style="stroke:black; stroke-linecap:round; stroke-width:0.25;"/>
<line x1="32.000000" y1="208.000000" x2="36.000000" y2="208.000000"  style="stroke:black; stroke-linecap:round; stroke-width:0.25;"/>
<line x1="32.000000" y1="216.000000" x2="36.000000" y2="216.000000"  style="stroke:black; stroke-linecap:round; stroke-width:0.25;"/>
<line x1="32.000000" y1="224.000000" x2="36.000000" y2="224.000000"  style="stroke:black; stroke-linecap:round; stroke-width:0.25;"/>
<line x1="32.000000" y1="232.000000" x2="36.000000" y2="232.000000"  style="stroke:black; stroke-linecap:round; stroke-width:0.25;"/>
<line x1="32.000000" y1="240.000000" x2="36.000000" y2="240.000000"  style="stroke:black; stroke-linecap:round; stroke-width:0.25;"/>
<line x1="36.000000" y1="104.000000" x2="148.000000" y2="28.000000"  style="stroke:black; stroke-linecap:round; stroke-width:0.25;"/>
<line x1="36.000000" y1="104.000000" x2="148.000000" y2="180.000000"  style="stroke:black; stroke-linecap:round; stroke-width:0.25;"/>
<line x1="36.000000" y1="112.000000" x2="148.000000" y2="36.000000"  style="stroke:black; stroke-linecap:round; stroke-width:0.25;"/>
<line x1="36.000000" y1="112.000000" x2="148.000000" y2="188.000000"  style="stroke:black; stroke-linecap:round; stroke-width:0.25;"/>
<line x1="36.000000" y1="120.000000" x2="148.000000" y2="44.000000"  style="stroke:black; stroke-linecap:round; stroke-width:0.25;"/>
<line x1="36.000000" y1="120.000000" x2="148.000000" y2="196.000000"  style="stroke:black; stroke-linecap:round; stroke-width:0.25;"/>
<line x1="36.000000" y1="128.000000" x2="148.000000" y2="52.000000"  style="stroke:black; stroke-linecap:round; stroke-width:0.25;"/>
<line x1="36.000000" y1="128.000000" x2="148.000000" y2="204.000000"  style="stroke:black; stroke-linecap:round; stroke-width:0.25;"/>
<line x1="36.000000" y1="136.000000" x2="148.000000" y2="60.000000"  style="stroke:black; stroke-linecap:round; stroke-width:0.25;"/>
<line x1="36.000000" y1="136.000000" x2="148.000000" y2="212.000000"  style="stroke:black; stroke-linecap:round; stroke-width:0.25;"/>
<line x1="36.000000" y1="144.000000" x2="148.000000" y2="68.000000"  style="stroke:black; stroke-linecap:round; stroke-width:0.25;"/>
<line x1="36.000000" y1="144.000000" x2="148.000000" y2="220.000000"  style="stroke:black; stroke-linecap:round; stroke-width:0.25;"/>
<line x1="36.000000" y1="152.000000" x2="148.000000" y2="76.000000"  style="stroke:black; stroke-linecap:round; stroke-width:0.25;"/>
<line x1="36.000000" y1="152.000000" x2="148.000000" y2="228.000000"  style="stroke:black; stroke-linecap:round; stroke-width:0.25;"/>
<line x1="36.000000" y1="160.000000" x2="148.000000" y2="84.000000"  style="stroke:black; stroke-linecap:round; stroke-width:0.25;"/>
<line x1="36.000000" y1="160.000000" x2="148.000000" y2="236.000000"  style="stroke:black; stroke-linecap:round; stroke-width:0.25;"/>
<line x1="36.000000" y1="168.000000" x2="148.000000" y2="92.000000"  style="stroke:black; stroke-linecap:round; stroke-width:0.25;"/>
<line x1="36.000000" y1="168.000000" x2="148.000000" y2="244.000000"  style="stroke:black; stroke-linecap:round; stroke-width:0.25;"/>
<line x1="36.000000" y1="176.000000" x2="148.000000" y2="100.000000"  style="stroke:black; stroke-linecap:round; stroke-width:0.25;"/>
<line x1="36.000000" y1="176.000000" x2="148.000000" y2="252.000000"  style="stroke:black; stroke-linecap:round; stroke-width:0.25;"/>
<line x1="36.000000" y1="184.000000" x2="148.000000" y2="108.000000"  style="stroke:black; stroke-linecap:round; stroke-width:0.25;"/>
<line x1="36.000000" y1="184.000000" x2="148.000000" y2="260.000000"  style="stroke:black; stroke-linecap:round; stroke-width:0.25;"/>
<line x1="36.000000" y1="192.000000" x2="148.000000" y2="116.000000"  style="stroke:black; stroke-linecap:round; stroke-width:0.25;"/>
<line x1="36.000000" y1="192.000000" x2="148.000000" y2="268.000000"  style="stroke:black; stroke-linecap:round; stroke-width:0.25;"/>
<line x1="36.000000" y1="200.000000" x2="148.000000" y2="124.000000"  style="stroke:black; stroke-linecap:round; stroke-width:0.25;"/>
<line x1="36.000000" y1="200.000000" x2="148.000000" y2="276.000000"  style="stroke:black; stroke-linecap:round; stroke-width:0.25;"/>
<line x1="36.000000" y1="208.000000" x2="148.000000" y2="132.000000"  style="stroke:black; stroke-linecap:round; stroke-width:0.25;"/>
<line x1="36.000000" y1="208.000000" x2="148.000000" y2="284.000000"  style="stroke:black; stroke-linecap:round; stroke-width:0.25;"/>
<line x1="36.000000" y1="216.000000" x2="148.000000" y2="140.000000"  style="stroke:black; stroke-linecap:round; stroke-width:0.25;"/>
<line x1="36.000000" y1="216.000000" x2="148.000000" y2="292.000000"  style="stroke:black; stroke-linecap:round; stroke-width:0.25;"/>
<line x1="36.000000" y1="224.000000" x2="148.000000" y2="148.000000"  style="stroke:black; stroke-linecap:round; stroke-width:0.25;"/>
<line x1="36.000000" y1="224.000000" x2="148.000000" y2="300.000000"  style="stroke:black; stroke-linecap:round; stroke-width:0.25;"/>
<line x1="36.000000" y1="232.000000" x2="148.000000" y2="156.000000"  style="stroke:black; stroke-linecap:round; stroke-width:0.25;"/>
<line x1="36.000000" y1="232.000000" x2="148.000000" y2="308.000000"  style="stroke:black; stroke-linecap:round; stroke-width:0.25;"/>
<line x1="36.000000" y1="240.000000" x2="148.000000" y2="164.000000"  style="stroke:black; stroke-linecap:round; stroke-width:0.25;"/>
<line x1="36.000000" y1="240.000000" x2="148.000000" y2="316.000000"  style="stroke:black; stroke-linecap:round; stroke-width:0.25;"/>
<line x1="148.000000" y1="28.000000" x2="152.000000" y2="28.000000"  style="stroke:black; stroke-linecap:round; stroke-width:0.25;"/>
<line x1="148.000000" y1="36.000000" x2="152.000000" y2="36.000000"  style="stroke:black; stroke-linecap:round; stroke-width:0.25;"/>
<line x1="148.000000" y1="44.000000" x2="152.000000" y2="44.000000"  style="stroke:black; stroke-linecap:round; stroke-width:0.25;"/>
<line x1="148.000000" y1="52.000000" x2="152.000000" y2="52.000000"  style="stroke:black; stroke-linecap:round; stroke-width:0.25;"/>
<line x1="148.000000" y1="60.000000" x2="152.000000" y2="60.000000"  style="stroke:black; stroke-linecap:round; stroke-width:0.25;"/>
<line x1="148.000000" y1="68.000000" x2="152.000000" y2="68.000000"  style="stroke:black; stroke-linecap:round; stroke-width:0.25;"/>
<line x1="148.000000" y1="76.000000" x2="152.000000" y2="76.000000"  style="stroke:black; stroke-linecap:round; stroke-width:0.25;"/>
<line x1="148.000000" y1="84.000000" x2="152.000000" y2="84.000000"  style="stroke:black; stroke-linecap:round; stroke-width:0.25;"/>
<line x1="148.000000" y1="92.000000" x2="152.000000" y2="92.000000"  style="stroke:black; stroke-linecap:round; stroke-width:0.25;"/>
<line x1="148.000000" y1="100.000000" x2="152.000000" y2="100.000000"  style="stroke:black; stroke-linecap:round; stroke-width:0.25;"/>
<line x1="148.000000" y1="108.000000" x2="152.000000" y2="108.000000"  style="stroke:black; stroke-linecap:round; stroke-width:0.25;"/>
<line x1="148.000000" y1="116.000000" x2="152.000000" y2="116.000000"  style="stroke:black; stroke-linecap:round; stroke-width:0.25;"/>
<line x1="148.000000" y1="124.000000" x2="152.000000" y2="124.000000"  style="stroke:black; stroke-linecap:round; stroke-width:0.25;"/>
<line x1="148.000000" y1="132.000000" x2="152.000000" y2="132.000000"  style="stroke:black; stroke-linecap:round; stroke-width:0.25;"/>
<line x1="148.000000" y1="140.000000" x2="152.000000" y2="140.000000"  style="stroke:black; stroke-linecap:round; stroke-width:0.25;"/>
<line x1="148.000000" y1="148.000000" x2="152.000000" y2="148.000000"  style="stroke:black; stroke-linecap:round; stroke-width:0.25;"/>
<line x1="148.000000" y1="156.000000" x2="152.000000" y2="156.000000"  style="stroke:black; stroke-linecap:round; stroke-width:0.25;"/>
<line x1="148.000000" y1="164.000000" x2="152.000000" y2="164.000000"  style="stroke:black; stroke-linecap:round; stroke-width:0.25;"/>
<line x1="148.000000" y1="180.000000" x2="152.000000" y2="180.000000"  style="stroke:black; stroke-linecap:round; stroke-width:0.25;"/>
<line x1="148.000000" y1="188.000000" x2="152.000000" y2="188.000000"  style="stroke:black; stroke-linecap:round; stroke-width:0.25;"/>
<line x1="148.000000" y1="196.000000" x2="152.000000" y2="196.000000"  style="stroke:black; stroke-linecap:round; stroke-width:0.25;"/>
<line x1="148.000000" y1="204.000000" x2="152.000000" y2="204.000000"  style="stroke:black; stroke-linecap:round; stroke-width:0.25;"/>
<line x1="148.000000" y1="212.000000" x2="152.000000" y2="212.000000"  style="stroke:black; stroke-linecap:round; stroke-width:0.25;"/>
<line x1="148.000000" y1="220.000000" x2="152.000000" y2="220.000000"  style="stroke:black; stroke-linecap:round; stroke-width:0.25;"/>
<line x1="148.000000" y1="228.000000" x2="152.000000" y2="228.000000"  style="stroke:black; stroke-linecap:round; stroke-width:0.25;"/>
<line x1="148.000000" y1="236.000000" x2="152.000000" y2="236.000000"  style="stroke:black; stroke-linecap:round; stroke-width:0.25;"/>
<line x1="148.000000" y1="244.000000" x2="152.000000" y2="244.000000"  style="stroke:black; stroke-linecap:round; stroke-width:0.25;"/>
<line x1="148.000000" y1="252.000000" x2="152.000000" y2="252.000000"  style="stroke:black; stroke-linecap:round; stroke-width:0.25;"/>
<line x1="148.000000" y1="260.000000" x2="152.000000" y2="260.000000"  style="stroke:black; stroke-linecap:round; stroke-width:0.25;"/>
<line x1="148.000000" y1="268.000000" x2="152.000000" y2="268.000000"  style="stroke:black; stroke-linecap:round; stroke-width:0.25;"/>
<line x1="148.000000" y1="276.000000" x2="152.000000" y2="276.000000"  style="stroke:black; stroke-linecap:round; stroke-width:0.25;"/>
<line x1="148.000000" y1="284.000000" x2="152.000000" y2="284.000000"  style="stroke:black; stroke-linecap:round; stroke-width:0.25;"/>
<line x1="148.000000" y1="292.000000" x2="152.000000" y2="292.000000"  style="stroke:black; stroke-linecap:round; stroke-width:0.25;"/>
<line x1="148.000000" y1="300.000000" x2="152.000000" y2="300.000000"  style="stroke:black; stroke-linecap:round; stroke-width:0.25;"/>
<line x1="148.000000" y1="308.000000" x2="152.000000" y2="308.000000"  style="stroke:black; stroke-linecap:round; stroke-width:0.25;"/>
<line x1="148.000000" y1="316.000000" x2="152.000000" y2="316.000000"  style="stroke:black; stroke-linecap:round; stroke-width:0.25;"/>
<line x1="281.000000" y1="96.000000" x2="285.000000" y2="96.000000"  style="stroke:black; stroke-linecap:round; stroke-width:0.25;"/>
<line x1="281.000000" y1="248.000000" x2="285.000000" y2="248.000000"  style="stroke:black; stroke-linecap:round; stroke-width:0.25;"/>
<line x1="285.000000" y1="96.000000" x2="293.000000" y2="96.000000"  style="stroke:black; stroke-linecap:round; stroke-width:0.25;"/>
<line x1="285.000000" y1="188.000000" x2="293.000000" y2="188.000000"  style="stroke:black; stroke-linecap:round; stroke-width:0.25;"/>
<line x1="285.000000" y1="248.000000" x2="285.000000" y2="188.000000"  style="stroke:black; stroke-linecap:round; stroke-width:0.25;"/>
<line x1="285.000000" y1="248.000000" x2="285.000000" y2="248.000000"  style="stroke:black; stroke-linecap:round; stroke-width:0.25;"/>
<line x1="293.000000" y1="96.000000" x2="293.000000" y2="156.000000"  style="stroke:black; stroke-linecap:round; stroke-width:0.25;"/>
<line x1="293.000000" y1="156.000000" x2="293.000000" y2="156.000000"  style="stroke:black; stroke-linecap:round; stroke-width:0.25;"/>
<line x1="293.000000" y1="156.000000" x2="297.000000" y2="156.000000"  style="stroke:black; stroke-linecap:round; stroke-width:0.25;"/>
<line x1="293.000000" y1="188.000000" x2="297.000000" y2="188.000000"  style="stroke:black; stroke-linecap:round; stroke-width:0.25;"/>
<line x1="335.700000" y1="156.000000" x2="339.700000" y2="156.000000"  style="stroke:black; stroke-linecap:round; stroke-width:0.25;"/>
<line x1="335.700000" y1="188.000000" x2="339.700000" y2="188.000000"  style="stroke:black; stroke-linecap:round; stroke-width:0.25;"/>
<line x1="339.700000" y1="156.000000" x2="347.700000" y2="156.000000"  style="stroke:black; stroke-linecap:round; stroke-width:0.25;"/>
<line x1="339.700000" y1="176.000000" x2="347.700000" y2="176.000000"  style="stroke:black; stroke-linecap:round; stroke-width:0.25;"/>
<line x1="339.700000" y1="188.000000" x2="339.700000" y2="176.000000"  style="stroke:black; stroke-linecap:round; stroke-width:0.25;"/>
<line x1="339.700000" y1="188.000000" x2="339.700000" y2="188.000000"  style="stroke:black; stroke-linecap:round; stroke-width:0.25;"/>
<line x1="347.700000" y1="156.000000" x2="347.700000" y2="168.000000"  style="stroke:black; stroke-linecap:round; stroke-width:0.25;"/>
<line x1="347.700000" y1="168.000000" x2="347.700000" y2="168.000000"  style="stroke:black; stroke-linecap:round; stroke-width:0.25;"/>
<line x1="347.700000" y1="168.000000" x2="351.700000" y2="168.000000"  style="stroke:black; stroke-linecap:round; stroke-width:0.25;"/>
<line x1="347.700000" y1="176.000000" x2="351.700000" y2="176.000000"  style="stroke:black; stroke-linecap:round; stroke-width:0.25;"/>
<line x1="351.700000" y1="168.000000" x2="355.700000" y2="168.000000"  style="stroke:black; stroke-linecap:round; stroke-width:0.25;"/>
<line x1="351.700000" y1="176.000000" x2="355.700000" y2="176.000000"  style="stroke:black; stroke-linecap:round; stroke-width:0.25;"/>
<line x1="355.700000" y1="168.000000" x2="365.700000" y2="168.000000"  style="stroke:black; stroke-linecap:round; stroke-width:0.25;"/>
<line x1="355.700000" y1="176.000000" x2="365.700000" y2="176.000000"  style="stroke:black; stroke-linecap:round; stroke-width:0.25;"/>
</svg>
